<svg version="1.1" xmlns="http://www.w3.org/2000/svg" xmlns:xlink="http://www.w3.org/1999/xlink" width="313" height="163"><defs><clipPath id="tkHoDrlhxCIC"><path fill="none" stroke="none" d=" M 0 0 L 313 0 L 313 163 L 0 163 L 0 0 Z"/></clipPath></defs><g transform="scale(1,1)" clip-path="url(#tkHoDrlhxCIC)"><g><rect fill="none" stroke="none" x="0" y="0" width="313" height="163" fill-opacity="1"/><path fill="none" stroke="rgb(51,51,255)" paint-order="fill stroke markers" d=" M 168.85751987584834 46.949297870072314 L 161.35751987584834 55.449297870072314" stroke-opacity="0.6980392156862745" stroke-linecap="round" stroke-linejoin="round" stroke-miterlimit="10" stroke-width="5"/><path fill="none" stroke="rgb(51,51,255)" paint-order="fill stroke markers" d=" M 168.85751987584834 46.949297870072314 L 161.35751987584834 38.449297870072314" stroke-opacity="0.6980392156862745" stroke-linecap="round" stroke-linejoin="round" stroke-miterlimit="10" stroke-width="5"/><path fill="none" stroke="rgb(51,51,255)" paint-order="fill stroke markers" d=" M 103.07746300048836 46.949297870072314 L 219.63757675120831 46.949297870072314" stroke-opacity="0.6980392156862745" stroke-linecap="round" stroke-linejoin="round" stroke-miterlimit="10" stroke-width="5"/><path fill="none" stroke="rgb(51,51,255)" paint-order="fill stroke markers" d=" M 168.85751987584834 105.22935474543237 L 161.35751987584834 113.72935474543237" stroke-opacity="0.6980392156862745" stroke-linecap="round" stroke-linejoin="round" stroke-miterlimit="10" stroke-width="5"/><path fill="none" stroke="rgb(51,51,255)" paint-order="fill stroke markers" d=" M 168.85751987584834 105.22935474543237 L 161.35751987584834 96.72935474543237" stroke-opacity="0.6980392156862745" stroke-linecap="round" stroke-linejoin="round" stroke-miterlimit="10" stroke-width="5"/><path fill="none" stroke="rgb(51,51,255)" paint-order="fill stroke markers" d=" M 44.79740612512836 105.22935474543237 L 277.9176336265683 105.22935474543237" stroke-opacity="0.6980392156862745" stroke-linecap="round" stroke-linejoin="round" stroke-miterlimit="10" stroke-width="5"/><path fill="none" stroke="rgb(51,51,255)" paint-order="fill stroke markers" d=" M 254.78801282897396 70.0789186676667 L 242.76719754880267 82.09973394783799" stroke-opacity="0.6980392156862745" stroke-linecap="round" stroke-linejoin="round" stroke-miterlimit="10" stroke-width="5"/><path fill="none" stroke="rgb(51,51,255)" paint-order="fill stroke markers" d=" M 219.63757675120831 46.949297870072314 L 277.9176336265683 105.22935474543237" stroke-opacity="0.6980392156862745" stroke-linecap="round" stroke-linejoin="round" stroke-miterlimit="10" stroke-width="5"/><path fill="none" stroke="rgb(51,51,255)" paint-order="fill stroke markers" d=" M 79.94784220289402 82.09973394783799 L 67.9270269227227 70.0789186676667" stroke-opacity="0.6980392156862745" stroke-linecap="round" stroke-linejoin="round" stroke-miterlimit="10" stroke-width="5"/><path fill="none" stroke="rgb(51,51,255)" paint-order="fill stroke markers" d=" M 103.07746300048836 46.949297870072314 L 44.79740612512836 105.22935474543237" stroke-opacity="0.6980392156862745" stroke-linecap="round" stroke-linejoin="round" stroke-miterlimit="10" stroke-width="5"/><path fill="rgb(77,77,255)" stroke="none" paint-order="stroke fill markers" d=" M 104.07746300048836 46.949297870072314 C 104.07746300048836 47.501582619903104 103.62974775031915 47.949297870072314 103.07746300048836 47.949297870072314 C 102.52517825065758 47.949297870072314 102.07746300048836 47.501582619903104 102.07746300048836 46.949297870072314 C 102.07746300048836 46.39701312024152 102.52517825065758 45.949297870072314 103.07746300048836 45.949297870072314 C 103.62974775031915 45.949297870072314 104.07746300048836 46.39701312024152 104.07746300048836 46.949297870072314 Z" fill-opacity="1"/><path fill="none" stroke="rgb(0,0,0)" paint-order="fill stroke markers" d=" M 104.07746300048836 46.949297870072314 C 104.07746300048836 47.501582619903104 103.62974775031915 47.949297870072314 103.07746300048836 47.949297870072314 C 102.52517825065758 47.949297870072314 102.07746300048836 47.501582619903104 102.07746300048836 46.949297870072314 C 102.07746300048836 46.39701312024152 102.52517825065758 45.949297870072314 103.07746300048836 45.949297870072314 C 103.62974775031915 45.949297870072314 104.07746300048836 46.39701312024152 104.07746300048836 46.949297870072314 Z" stroke-opacity="1" stroke-linecap="round" stroke-linejoin="round" stroke-miterlimit="10"/><text fill="rgb(77,77,255)" stroke="none" font-family="geogebra-sans-serif, sans-serif" font-size="20px" font-style="normal" font-weight="normal"  x="95" y="41" text-anchor="start" dominant-baseline="alphabetic" fill-opacity="1">B</text><path fill="rgb(77,77,255)" stroke="none" paint-order="stroke fill markers" d=" M 220.63757675120831 46.949297870072314 C 220.63757675120831 47.501582619903104 220.1898615010391 47.949297870072314 219.63757675120831 47.949297870072314 C 219.08529200137752 47.949297870072314 218.63757675120831 47.501582619903104 218.63757675120831 46.949297870072314 C 218.63757675120831 46.39701312024152 219.08529200137752 45.949297870072314 219.63757675120831 45.949297870072314 C 220.1898615010391 45.949297870072314 220.63757675120831 46.39701312024152 220.63757675120831 46.949297870072314 Z" fill-opacity="1"/><path fill="none" stroke="rgb(0,0,0)" paint-order="fill stroke markers" d=" M 220.63757675120831 46.949297870072314 C 220.63757675120831 47.501582619903104 220.1898615010391 47.949297870072314 219.63757675120831 47.949297870072314 C 219.08529200137752 47.949297870072314 218.63757675120831 47.501582619903104 218.63757675120831 46.949297870072314 C 218.63757675120831 46.39701312024152 219.08529200137752 45.949297870072314 219.63757675120831 45.949297870072314 C 220.1898615010391 45.949297870072314 220.63757675120831 46.39701312024152 220.63757675120831 46.949297870072314 Z" stroke-opacity="1" stroke-linecap="round" stroke-linejoin="round" stroke-miterlimit="10"/><text fill="rgb(77,77,255)" stroke="none" font-family="geogebra-sans-serif, sans-serif" font-size="20px" font-style="normal" font-weight="normal"  x="224" y="45" text-anchor="start" dominant-baseline="alphabetic" fill-opacity="1">C</text><path fill="rgb(77,77,255)" stroke="none" paint-order="stroke fill markers" d=" M 278.9176336265683 105.22935474543237 C 278.9176336265683 105.78163949526316 278.4699183763991 106.22935474543237 277.9176336265683 106.22935474543237 C 277.3653488767375 106.22935474543237 276.9176336265683 105.78163949526316 276.9176336265683 105.22935474543237 C 276.9176336265683 104.67706999560158 277.3653488767375 104.22935474543237 277.9176336265683 104.22935474543237 C 278.4699183763991 104.22935474543237 278.9176336265683 104.67706999560158 278.9176336265683 105.22935474543237 Z" fill-opacity="1"/><path fill="none" stroke="rgb(0,0,0)" paint-order="fill stroke markers" d=" M 278.9176336265683 105.22935474543237 C 278.9176336265683 105.78163949526316 278.4699183763991 106.22935474543237 277.9176336265683 106.22935474543237 C 277.3653488767375 106.22935474543237 276.9176336265683 105.78163949526316 276.9176336265683 105.22935474543237 C 276.9176336265683 104.67706999560158 277.3653488767375 104.22935474543237 277.9176336265683 104.22935474543237 C 278.4699183763991 104.22935474543237 278.9176336265683 104.67706999560158 278.9176336265683 105.22935474543237 Z" stroke-opacity="1" stroke-linecap="round" stroke-linejoin="round" stroke-miterlimit="10"/><text fill="rgb(77,77,255)" stroke="none" font-family="geogebra-sans-serif, sans-serif" font-size="20px" font-style="normal" font-weight="normal"  x="277" y="126" text-anchor="start" dominant-baseline="alphabetic" fill-opacity="1">D</text><path fill="rgb(77,77,255)" stroke="none" paint-order="stroke fill markers" d=" M 45.79740612512836 105.22935474543237 C 45.79740612512836 105.78163949526316 45.34969087495915 106.22935474543237 44.79740612512836 106.22935474543237 C 44.245121375297565 106.22935474543237 43.79740612512836 105.78163949526316 43.79740612512836 105.22935474543237 C 43.79740612512836 104.67706999560158 44.245121375297565 104.22935474543237 44.79740612512836 104.22935474543237 C 45.34969087495915 104.22935474543237 45.79740612512836 104.67706999560158 45.79740612512836 105.22935474543237 Z" fill-opacity="1"/><path fill="none" stroke="rgb(0,0,0)" paint-order="fill stroke markers" d=" M 45.79740612512836 105.22935474543237 C 45.79740612512836 105.78163949526316 45.34969087495915 106.22935474543237 44.79740612512836 106.22935474543237 C 44.245121375297565 106.22935474543237 43.79740612512836 105.78163949526316 43.79740612512836 105.22935474543237 C 43.79740612512836 104.67706999560158 44.245121375297565 104.22935474543237 44.79740612512836 104.22935474543237 C 45.34969087495915 104.22935474543237 45.79740612512836 104.67706999560158 45.79740612512836 105.22935474543237 Z" stroke-opacity="1" stroke-linecap="round" stroke-linejoin="round" stroke-miterlimit="10"/><text fill="rgb(77,77,255)" stroke="none" font-family="geogebra-sans-serif, sans-serif" font-size="20px" font-style="normal" font-weight="normal"  x="39" y="126" text-anchor="start" dominant-baseline="alphabetic" fill-opacity="1">A</text></g></g></svg>