<svg version="1.1" xmlns="http://www.w3.org/2000/svg" xmlns:xlink="http://www.w3.org/1999/xlink" width="283" height="311"><defs><clipPath id="QXdBxBDGapUx"><path fill="none" stroke="none" d=" M 0 0 L 283 0 L 283 311 L 0 311 L 0 0 Z"/></clipPath></defs><g transform="scale(1,1)" clip-path="url(#QXdBxBDGapUx)"><g><rect fill="none" stroke="none" x="0" y="0" width="283" height="311" fill-opacity="1"/><path fill="none" stroke="rgb(0,0,255)" paint-order="fill stroke markers" d=" M 223.02035198904474 177.050300014546 C 223.02035198904474 229.2360043002983 180.71547998830619 271.5408763010372 128.5297757025544 271.5408763010372 C 76.34407141680258 271.5408763010372 34.03919941606405 229.2360043002983 34.03919941606405 177.050300014546 C 34.03919941606405 124.8645957287937 76.34407141680258 82.55972372805478 128.5297757025544 82.55972372805478 C 180.71547998830619 82.55972372805478 223.02035198904474 124.8645957287937 223.02035198904474 177.050300014546 Z" stroke-opacity="0.6980392156862745" stroke-linecap="round" stroke-linejoin="round" stroke-miterlimit="10" stroke-width="5"/><path fill="rgb(0,100,0)" stroke="none" paint-order="stroke fill markers" d=" M 57.89604031576174 130.29286733279469 C 65.63785050111854 131.6532805332928 73.45870363547317 128.3526735650928 77.88503076174186 121.8569844412628 L 61.35746244911819 110.59468069506806 Z" fill-opacity="0.5372549019607843"/><path fill="none" stroke="rgb(0,100,0)" paint-order="fill stroke markers" d=" M 57.89604031576174 130.29286733279469 C 65.63785050111854 131.6532805332928 73.45870363547317 128.3526735650928 77.88503076174186 121.8569844412628 L 61.35746244911819 110.59468069506806 Z" stroke-opacity="0.6" stroke-linecap="round" stroke-linejoin="round" stroke-miterlimit="10" stroke-width="2.5"/><text fill="rgb(0,100,0)" stroke="none" font-family="geogebra-sans-serif, sans-serif" font-size="20px" font-style="normal" font-weight="normal"  x="59" y="150" text-anchor="start" dominant-baseline="alphabetic" fill-opacity="1">60⁰</text><path fill="rgb(0,100,0)" stroke="none" paint-order="stroke fill markers" d=" M 113.90372324249367 103.7169509819231 C 122.21548583201334 108.95677664721234 132.82586704458214 108.84201573396757 141.02235148454497 103.42363837791254 L 127.23588476968291 82.56858298311681 Z" fill-opacity="0.6274509803921569"/><path fill="none" stroke="rgb(0,100,0)" paint-order="fill stroke markers" d=" M 113.90372324249367 103.7169509819231 C 122.21548583201334 108.95677664721234 132.82586704458214 108.84201573396757 141.02235148454497 103.42363837791254 L 127.23588476968291 82.56858298311681 Z" stroke-opacity="0.6980392156862745" stroke-linecap="round" stroke-linejoin="round" stroke-miterlimit="10" stroke-width="2.5"/><text fill="rgb(0,100,0)" stroke="none" font-family="geogebra-sans-serif, sans-serif" font-size="20px" font-style="normal" font-weight="normal"  x="125" y="127" text-anchor="start" dominant-baseline="alphabetic" fill-opacity="1">x</text><path fill="none" stroke="rgb(244,0,153)" paint-order="fill stroke markers" d=" M 42.72560563828013 216.6244507512855 L 214.95132529734278 215.257429880431" stroke-opacity="0.6980392156862745" stroke-linecap="round" stroke-linejoin="round" stroke-miterlimit="10" stroke-width="5"/><path fill="none" stroke="rgb(244,0,153)" paint-order="fill stroke markers" d=" M 61.35746244911816 110.59468069506806 L 42.72560563828013 216.6244507512855" stroke-opacity="0.6980392156862745" stroke-linecap="round" stroke-linejoin="round" stroke-miterlimit="10" stroke-width="5"/><path fill="none" stroke="rgb(244,0,153)" paint-order="fill stroke markers" d=" M 42.72560563828013 216.6244507512855 L 127.23588476968291 82.56858298311681" stroke-opacity="0.6980392156862745" stroke-linecap="round" stroke-linejoin="round" stroke-miterlimit="10" stroke-width="5"/><path fill="none" stroke="rgb(244,0,153)" paint-order="fill stroke markers" d=" M 127.23588476968291 82.56858298311681 L 214.95132529734278 215.257429880431" stroke-opacity="0.6980392156862745" stroke-linecap="round" stroke-linejoin="round" stroke-miterlimit="10" stroke-width="5"/><path fill="none" stroke="rgb(244,0,153)" paint-order="fill stroke markers" d=" M 61.35746244911816 110.59468069506806 L 214.95132529734278 215.257429880431" stroke-opacity="0.6980392156862745" stroke-linecap="round" stroke-linejoin="round" stroke-miterlimit="10" stroke-width="5"/><path fill="rgb(77,77,255)" stroke="none" paint-order="stroke fill markers" d=" M 130.5297757025544 177.050300014546 C 130.5297757025544 178.15486951420758 129.63434520221597 179.050300014546 128.5297757025544 179.050300014546 C 127.4252062028928 179.050300014546 126.52977570255439 178.15486951420758 126.52977570255439 177.050300014546 C 126.52977570255439 175.94573051488442 127.4252062028928 175.050300014546 128.5297757025544 175.050300014546 C 129.63434520221597 175.050300014546 130.5297757025544 175.94573051488442 130.5297757025544 177.050300014546 Z" fill-opacity="1"/><path fill="none" stroke="rgb(0,0,0)" paint-order="fill stroke markers" d=" M 130.5297757025544 177.050300014546 C 130.5297757025544 178.15486951420758 129.63434520221597 179.050300014546 128.5297757025544 179.050300014546 C 127.4252062028928 179.050300014546 126.52977570255439 178.15486951420758 126.52977570255439 177.050300014546 C 126.52977570255439 175.94573051488442 127.4252062028928 175.050300014546 128.5297757025544 175.050300014546 C 129.63434520221597 175.050300014546 130.5297757025544 175.94573051488442 130.5297757025544 177.050300014546 Z" stroke-opacity="1" stroke-linecap="round" stroke-linejoin="round" stroke-miterlimit="10"/><text fill="rgb(77,77,255)" stroke="none" font-family="geogebra-sans-serif, sans-serif" font-size="20px" font-style="normal" font-weight="normal"  x="111" y="195" text-anchor="start" dominant-baseline="alphabetic" fill-opacity="1">O</text><path fill="rgb(77,77,255)" stroke="none" paint-order="stroke fill markers" d=" M 129.5297757025544 271.5408763010372 C 129.5297757025544 272.093161050868 129.08206045238518 272.5408763010372 128.5297757025544 272.5408763010372 C 127.9774909527236 272.5408763010372 127.52977570255439 272.093161050868 127.52977570255439 271.5408763010372 C 127.52977570255439 270.9885915512064 127.9774909527236 270.5408763010372 128.5297757025544 270.5408763010372 C 129.08206045238518 270.5408763010372 129.5297757025544 270.9885915512064 129.5297757025544 271.5408763010372 Z" fill-opacity="1"/><path fill="none" stroke="rgb(0,0,0)" paint-order="fill stroke markers" d=" M 129.5297757025544 271.5408763010372 C 129.5297757025544 272.093161050868 129.08206045238518 272.5408763010372 128.5297757025544 272.5408763010372 C 127.9774909527236 272.5408763010372 127.52977570255439 272.093161050868 127.52977570255439 271.5408763010372 C 127.52977570255439 270.9885915512064 127.9774909527236 270.5408763010372 128.5297757025544 270.5408763010372 C 129.08206045238518 270.5408763010372 129.5297757025544 270.9885915512064 129.5297757025544 271.5408763010372 Z" stroke-opacity="1" stroke-linecap="round" stroke-linejoin="round" stroke-miterlimit="10"/><path fill="rgb(125,125,255)" stroke="none" paint-order="stroke fill markers" d=" M 43.72560563828013 216.6244507512855 C 43.72560563828013 217.1767355011163 43.27789038811092 217.6244507512855 42.72560563828013 217.6244507512855 C 42.17332088844933 217.6244507512855 41.72560563828013 217.1767355011163 41.72560563828013 216.6244507512855 C 41.72560563828013 216.07216600145472 42.17332088844933 215.6244507512855 42.72560563828013 215.6244507512855 C 43.27789038811092 215.6244507512855 43.72560563828013 216.07216600145472 43.72560563828013 216.6244507512855 Z" fill-opacity="1"/><path fill="none" stroke="rgb(0,0,0)" paint-order="fill stroke markers" d=" M 43.72560563828013 216.6244507512855 C 43.72560563828013 217.1767355011163 43.27789038811092 217.6244507512855 42.72560563828013 217.6244507512855 C 42.17332088844933 217.6244507512855 41.72560563828013 217.1767355011163 41.72560563828013 216.6244507512855 C 41.72560563828013 216.07216600145472 42.17332088844933 215.6244507512855 42.72560563828013 215.6244507512855 C 43.27789038811092 215.6244507512855 43.72560563828013 216.07216600145472 43.72560563828013 216.6244507512855 Z" stroke-opacity="1" stroke-linecap="round" stroke-linejoin="round" stroke-miterlimit="10"/><text fill="rgb(125,125,255)" stroke="none" font-family="geogebra-sans-serif, sans-serif" font-size="20px" font-style="normal" font-weight="normal"  x="21" y="229" text-anchor="start" dominant-baseline="alphabetic" fill-opacity="1">A</text><path fill="rgb(125,125,255)" stroke="none" paint-order="stroke fill markers" d=" M 215.95132529734278 215.257429880431 C 215.95132529734278 215.8097146302618 215.50361004717357 216.257429880431 214.95132529734278 216.257429880431 C 214.399040547512 216.257429880431 213.95132529734278 215.8097146302618 213.95132529734278 215.257429880431 C 213.95132529734278 214.70514513060021 214.399040547512 214.257429880431 214.95132529734278 214.257429880431 C 215.50361004717357 214.257429880431 215.95132529734278 214.70514513060021 215.95132529734278 215.257429880431 Z" fill-opacity="1"/><path fill="none" stroke="rgb(0,0,0)" paint-order="fill stroke markers" d=" M 215.95132529734278 215.257429880431 C 215.95132529734278 215.8097146302618 215.50361004717357 216.257429880431 214.95132529734278 216.257429880431 C 214.399040547512 216.257429880431 213.95132529734278 215.8097146302618 213.95132529734278 215.257429880431 C 213.95132529734278 214.70514513060021 214.399040547512 214.257429880431 214.95132529734278 214.257429880431 C 215.50361004717357 214.257429880431 215.95132529734278 214.70514513060021 215.95132529734278 215.257429880431 Z" stroke-opacity="1" stroke-linecap="round" stroke-linejoin="round" stroke-miterlimit="10"/><text fill="rgb(125,125,255)" stroke="none" font-family="geogebra-sans-serif, sans-serif" font-size="20px" font-style="normal" font-weight="normal"  x="222" y="235" text-anchor="start" dominant-baseline="alphabetic" fill-opacity="1">B</text><path fill="rgb(125,125,255)" stroke="none" paint-order="stroke fill markers" d=" M 62.35746244911816 110.59468069506806 C 62.35746244911816 111.14696544489885 61.90974719894895 111.59468069506806 61.35746244911816 111.59468069506806 C 60.80517769928736 111.59468069506806 60.35746244911816 111.14696544489885 60.35746244911816 110.59468069506806 C 60.35746244911816 110.04239594523727 60.80517769928736 109.59468069506806 61.35746244911816 109.59468069506806 C 61.90974719894895 109.59468069506806 62.35746244911816 110.04239594523727 62.35746244911816 110.59468069506806 Z" fill-opacity="1"/><path fill="none" stroke="rgb(0,0,0)" paint-order="fill stroke markers" d=" M 62.35746244911816 110.59468069506806 C 62.35746244911816 111.14696544489885 61.90974719894895 111.59468069506806 61.35746244911816 111.59468069506806 C 60.80517769928736 111.59468069506806 60.35746244911816 111.14696544489885 60.35746244911816 110.59468069506806 C 60.35746244911816 110.04239594523727 60.80517769928736 109.59468069506806 61.35746244911816 109.59468069506806 C 61.90974719894895 109.59468069506806 62.35746244911816 110.04239594523727 62.35746244911816 110.59468069506806 Z" stroke-opacity="1" stroke-linecap="round" stroke-linejoin="round" stroke-miterlimit="10"/><text fill="rgb(125,125,255)" stroke="none" font-family="geogebra-sans-serif, sans-serif" font-size="20px" font-style="normal" font-weight="normal"  x="46" y="104" text-anchor="start" dominant-baseline="alphabetic" fill-opacity="1">D</text><path fill="rgb(125,125,255)" stroke="none" paint-order="stroke fill markers" d=" M 128.2358847696829 82.56858298311681 C 128.2358847696829 83.1208677329476 127.7881695195137 83.56858298311681 127.23588476968291 83.56858298311681 C 126.68360001985212 83.56858298311681 126.23588476968291 83.1208677329476 126.23588476968291 82.56858298311681 C 126.23588476968291 82.01629823328602 126.68360001985212 81.56858298311681 127.23588476968291 81.56858298311681 C 127.7881695195137 81.56858298311681 128.2358847696829 82.01629823328602 128.2358847696829 82.56858298311681 Z" fill-opacity="1"/><path fill="none" stroke="rgb(0,0,0)" paint-order="fill stroke markers" d=" M 128.2358847696829 82.56858298311681 C 128.2358847696829 83.1208677329476 127.7881695195137 83.56858298311681 127.23588476968291 83.56858298311681 C 126.68360001985212 83.56858298311681 126.23588476968291 83.1208677329476 126.23588476968291 82.56858298311681 C 126.23588476968291 82.01629823328602 126.68360001985212 81.56858298311681 127.23588476968291 81.56858298311681 C 127.7881695195137 81.56858298311681 128.2358847696829 82.01629823328602 128.2358847696829 82.56858298311681 Z" stroke-opacity="1" stroke-linecap="round" stroke-linejoin="round" stroke-miterlimit="10"/><text fill="rgb(125,125,255)" stroke="none" font-family="geogebra-sans-serif, sans-serif" font-size="20px" font-style="normal" font-weight="normal"  x="128" y="71" text-anchor="start" dominant-baseline="alphabetic" fill-opacity="1">C</text></g></g></svg>