<svg version="1.1" xmlns="http://www.w3.org/2000/svg" xmlns:xlink="http://www.w3.org/1999/xlink" width="294" height="208"><defs><clipPath id="kyvJbLNkZcEZ"><path fill="none" stroke="none" d=" M 0 0 L 294 0 L 294 208 L 0 208 L 0 0 Z"/></clipPath></defs><g transform="scale(1,1)" clip-path="url(#kyvJbLNkZcEZ)"><g><rect fill="none" stroke="none" x="0" y="0" width="294" height="208" fill-opacity="1"/><path fill="none" stroke="rgb(0,0,255)" paint-order="fill stroke markers" d=" M 171.92498638259843 99.28577010852979 C 171.92498638259843 117.76865695788291 156.9416461543148 132.75199718616653 138.45875930496166 132.75199718616653 C 119.97587245560854 132.75199718616653 104.99253222732492 117.76865695788291 104.99253222732492 99.28577010852979 C 104.99253222732492 80.80288325917665 119.97587245560854 65.81954303089304 138.45875930496166 65.81954303089304 C 156.9416461543148 65.81954303089304 171.92498638259843 80.80288325917665 171.92498638259843 99.28577010852979 Z" stroke-opacity="0.6980392156862745" stroke-linecap="round" stroke-linejoin="round" stroke-miterlimit="10" stroke-width="5"/><path fill="none" stroke="rgb(0,0,255)" paint-order="fill stroke markers" d=" M 205.39121346023518 99.28577010852979 C 205.39121346023518 136.25154380723603 175.42453300366793 166.21822426380328 138.45875930496166 166.21822426380328 C 101.49298560625539 166.21822426380328 71.52630514968816 136.25154380723603 71.52630514968816 99.28577010852979 C 71.52630514968816 62.319996409823524 101.49298560625539 32.3533159532563 138.45875930496166 32.3533159532563 C 175.42453300366793 32.3533159532563 205.39121346023518 62.319996409823524 205.39121346023518 99.28577010852979 Z" stroke-opacity="0.6980392156862745" stroke-linecap="round" stroke-linejoin="round" stroke-miterlimit="10" stroke-width="5"/><path fill="none" stroke="rgb(0,0,0)" paint-order="fill stroke markers" d=" M 194.00000000000006 135.99999999999983 L 82.00000000000006 134.99999999999983" stroke-opacity="0.6980392156862745" stroke-linecap="round" stroke-linejoin="round" stroke-miterlimit="10" stroke-width="5"/><path fill="none" stroke="rgb(0,0,0)" paint-order="fill stroke markers" d=" M 138.45875930496166 99.28577010852979 L 137.44582738216695 135.49505203019774" stroke-opacity="0.6980392156862745" stroke-linecap="round" stroke-linejoin="round" stroke-miterlimit="10" stroke-width="2.5"/><path fill="none" stroke="rgb(0,0,0)" paint-order="fill stroke markers" d=" M 82.00000000000006 134.99999999999983 L 138.45875930496166 99.28577010852979" stroke-opacity="0.6980392156862745" stroke-linecap="round" stroke-linejoin="round" stroke-miterlimit="10" stroke-width="2.5"/><path fill="rgb(77,77,255)" stroke="none" paint-order="stroke fill markers" d=" M 139.45875930496166 99.28577010852979 C 139.45875930496166 99.83805485836058 139.01104405479245 100.28577010852979 138.45875930496166 100.28577010852979 C 137.90647455513087 100.28577010852979 137.45875930496166 99.83805485836058 137.45875930496166 99.28577010852979 C 137.45875930496166 98.733485358699 137.90647455513087 98.28577010852979 138.45875930496166 98.28577010852979 C 139.01104405479245 98.28577010852979 139.45875930496166 98.733485358699 139.45875930496166 99.28577010852979 Z" fill-opacity="1"/><path fill="none" stroke="rgb(0,0,0)" paint-order="fill stroke markers" d=" M 139.45875930496166 99.28577010852979 C 139.45875930496166 99.83805485836058 139.01104405479245 100.28577010852979 138.45875930496166 100.28577010852979 C 137.90647455513087 100.28577010852979 137.45875930496166 99.83805485836058 137.45875930496166 99.28577010852979 C 137.45875930496166 98.733485358699 137.90647455513087 98.28577010852979 138.45875930496166 98.28577010852979 C 139.01104405479245 98.28577010852979 139.45875930496166 98.733485358699 139.45875930496166 99.28577010852979 Z" stroke-opacity="1" stroke-linecap="round" stroke-linejoin="round" stroke-miterlimit="10"/><text fill="rgb(77,77,255)" stroke="none" font-family="geogebra-sans-serif, sans-serif" font-size="20px" font-style="normal" font-weight="normal" x="130" y="96" text-anchor="start" dominant-baseline="alphabetic" fill-opacity="1">O</text><path fill="rgb(77,77,255)" stroke="none" paint-order="stroke fill markers" d=" M 172.9249863825984 99.28577010852979 C 172.9249863825984 99.83805485836058 172.4772711324292 100.28577010852979 171.9249863825984 100.28577010852979 C 171.37270163276762 100.28577010852979 170.9249863825984 99.83805485836058 170.9249863825984 99.28577010852979 C 170.9249863825984 98.733485358699 171.37270163276762 98.28577010852979 171.9249863825984 98.28577010852979 C 172.4772711324292 98.28577010852979 172.9249863825984 98.733485358699 172.9249863825984 99.28577010852979 Z" fill-opacity="1"/><path fill="none" stroke="rgb(0,0,0)" paint-order="fill stroke markers" d=" M 172.9249863825984 99.28577010852979 C 172.9249863825984 99.83805485836058 172.4772711324292 100.28577010852979 171.9249863825984 100.28577010852979 C 171.37270163276762 100.28577010852979 170.9249863825984 99.83805485836058 170.9249863825984 99.28577010852979 C 170.9249863825984 98.733485358699 171.37270163276762 98.28577010852979 171.9249863825984 98.28577010852979 C 172.4772711324292 98.28577010852979 172.9249863825984 98.733485358699 172.9249863825984 99.28577010852979 Z" stroke-opacity="1" stroke-linecap="round" stroke-linejoin="round" stroke-miterlimit="10"/><path fill="rgb(77,77,255)" stroke="none" paint-order="stroke fill markers" d=" M 206.39121346023515 99.28577010852979 C 206.39121346023515 99.83805485836058 205.94349821006594 100.28577010852979 205.39121346023515 100.28577010852979 C 204.83892871040436 100.28577010852979 204.39121346023515 99.83805485836058 204.39121346023515 99.28577010852979 C 204.39121346023515 98.733485358699 204.83892871040436 98.28577010852979 205.39121346023515 98.28577010852979 C 205.94349821006594 98.28577010852979 206.39121346023515 98.733485358699 206.39121346023515 99.28577010852979 Z" fill-opacity="1"/><path fill="none" stroke="rgb(0,0,0)" paint-order="fill stroke markers" d=" M 206.39121346023515 99.28577010852979 C 206.39121346023515 99.83805485836058 205.94349821006594 100.28577010852979 205.39121346023515 100.28577010852979 C 204.83892871040436 100.28577010852979 204.39121346023515 99.83805485836058 204.39121346023515 99.28577010852979 C 204.39121346023515 98.733485358699 204.83892871040436 98.28577010852979 205.39121346023515 98.28577010852979 C 205.94349821006594 98.28577010852979 206.39121346023515 98.733485358699 206.39121346023515 99.28577010852979 Z" stroke-opacity="1" stroke-linecap="round" stroke-linejoin="round" stroke-miterlimit="10"/><path fill="rgb(77,77,255)" stroke="none" paint-order="stroke fill markers" d=" M 195.00000000000006 135.99999999999983 C 195.00000000000006 136.55228474983062 194.55228474983085 136.99999999999983 194.00000000000006 136.99999999999983 C 193.44771525016927 136.99999999999983 193.00000000000006 136.55228474983062 193.00000000000006 135.99999999999983 C 193.00000000000006 135.44771525016904 193.44771525016927 134.99999999999983 194.00000000000006 134.99999999999983 C 194.55228474983085 134.99999999999983 195.00000000000006 135.44771525016904 195.00000000000006 135.99999999999983 Z" fill-opacity="1"/><path fill="none" stroke="rgb(0,0,0)" paint-order="fill stroke markers" d=" M 195.00000000000006 135.99999999999983 C 195.00000000000006 136.55228474983062 194.55228474983085 136.99999999999983 194.00000000000006 136.99999999999983 C 193.44771525016927 136.99999999999983 193.00000000000006 136.55228474983062 193.00000000000006 135.99999999999983 C 193.00000000000006 135.44771525016904 193.44771525016927 134.99999999999983 194.00000000000006 134.99999999999983 C 194.55228474983085 134.99999999999983 195.00000000000006 135.44771525016904 195.00000000000006 135.99999999999983 Z" stroke-opacity="1" stroke-linecap="round" stroke-linejoin="round" stroke-miterlimit="10"/><text fill="rgb(77,77,255)" stroke="none" font-family="geogebra-sans-serif, sans-serif" font-size="20px" font-style="normal" font-weight="normal" x="202" y="157" text-anchor="start" dominant-baseline="alphabetic" fill-opacity="1">B</text><path fill="rgb(77,77,255)" stroke="none" paint-order="stroke fill markers" d=" M 83.00000000000006 134.99999999999983 C 83.00000000000006 135.55228474983062 82.55228474983085 135.99999999999983 82.00000000000006 135.99999999999983 C 81.44771525016927 135.99999999999983 81.00000000000006 135.55228474983062 81.00000000000006 134.99999999999983 C 81.00000000000006 134.44771525016904 81.44771525016927 133.99999999999983 82.00000000000006 133.99999999999983 C 82.55228474983085 133.99999999999983 83.00000000000006 134.44771525016904 83.00000000000006 134.99999999999983 Z" fill-opacity="1"/><path fill="none" stroke="rgb(0,0,0)" paint-order="fill stroke markers" d=" M 83.00000000000006 134.99999999999983 C 83.00000000000006 135.55228474983062 82.55228474983085 135.99999999999983 82.00000000000006 135.99999999999983 C 81.44771525016927 135.99999999999983 81.00000000000006 135.55228474983062 81.00000000000006 134.99999999999983 C 81.00000000000006 134.44771525016904 81.44771525016927 133.99999999999983 82.00000000000006 133.99999999999983 C 82.55228474983085 133.99999999999983 83.00000000000006 134.44771525016904 83.00000000000006 134.99999999999983 Z" stroke-opacity="1" stroke-linecap="round" stroke-linejoin="round" stroke-miterlimit="10"/><text fill="rgb(77,77,255)" stroke="none" font-family="geogebra-sans-serif, sans-serif" font-size="20px" font-style="normal" font-weight="normal" x="69" y="155" text-anchor="start" dominant-baseline="alphabetic" fill-opacity="1">A</text><path fill="rgb(125,125,255)" stroke="none" paint-order="stroke fill markers" d=" M 138.44582738216695 135.49505203019774 C 138.44582738216695 136.04733678002853 137.99811213199774 136.49505203019774 137.44582738216695 136.49505203019774 C 136.89354263233616 136.49505203019774 136.44582738216695 136.04733678002853 136.44582738216695 135.49505203019774 C 136.44582738216695 134.94276728036695 136.89354263233616 134.49505203019774 137.44582738216695 134.49505203019774 C 137.99811213199774 134.49505203019774 138.44582738216695 134.94276728036695 138.44582738216695 135.49505203019774 Z" fill-opacity="1"/><path fill="none" stroke="rgb(0,0,0)" paint-order="fill stroke markers" d=" M 138.44582738216695 135.49505203019774 C 138.44582738216695 136.04733678002853 137.99811213199774 136.49505203019774 137.44582738216695 136.49505203019774 C 136.89354263233616 136.49505203019774 136.44582738216695 136.04733678002853 136.44582738216695 135.49505203019774 C 136.44582738216695 134.94276728036695 136.89354263233616 134.49505203019774 137.44582738216695 134.49505203019774 C 137.99811213199774 134.49505203019774 138.44582738216695 134.94276728036695 138.44582738216695 135.49505203019774 Z" stroke-opacity="1" stroke-linecap="round" stroke-linejoin="round" stroke-miterlimit="10"/><text fill="rgb(125,125,255)" stroke="none" font-family="geogebra-sans-serif, sans-serif" font-size="20px" font-style="normal" font-weight="normal" x="129" y="155" text-anchor="start" dominant-baseline="alphabetic" fill-opacity="1">C</text></g></g></svg>