<svg version="1.1" xmlns="http://www.w3.org/2000/svg" xmlns:xlink="http://www.w3.org/1999/xlink" width="311" height="267"><defs><clipPath id="VGHIMyTcpRNl"><path fill="none" stroke="none" d=" M 0 0 L 311 0 L 311 267 L 0 267 L 0 0 Z"/></clipPath></defs><g transform="scale(1,1)" clip-path="url(#VGHIMyTcpRNl)"><g><rect fill="none" stroke="none" x="0" y="0" width="311" height="267" fill-opacity="1"/><path fill="none" stroke="rgb(255,0,255)" paint-order="fill stroke markers" d=" M 223.35744053787187 154.98840764270926 C 223.35744053787187 191.9541813414155 193.39076008130462 221.92086179798275 156.42498638259835 221.92086179798275 C 119.45921268389208 221.92086179798275 89.49253222732484 191.9541813414155 89.49253222732484 154.98840764270926 C 89.49253222732484 118.02263394400299 119.45921268389208 88.05595348743577 156.42498638259835 88.05595348743577 C 193.39076008130462 88.05595348743577 223.35744053787187 118.02263394400299 223.35744053787187 154.98840764270926 Z" stroke-opacity="0.6980392156862745" stroke-linecap="round" stroke-linejoin="round" stroke-miterlimit="10" stroke-width="5"/><text fill="rgb(51,51,255)" stroke="none" font-family="geogebra-sans-serif, sans-serif" font-size="20px" font-style="normal" font-weight="normal" x="85" y="116" text-anchor="start" dominant-baseline="alphabetic" fill-opacity="1">F</text><path fill="none" stroke="rgb(51,51,255)" paint-order="fill stroke markers" d=" M 22.56007807205134 221.92086179798275 L 156.49999999999994 36.50000000000006" stroke-opacity="0.6980392156862745" stroke-linecap="round" stroke-linejoin="round" stroke-miterlimit="10" stroke-width="5"/><text fill="rgb(51,51,255)" stroke="none" font-family="geogebra-sans-serif, sans-serif" font-size="20px" font-style="normal" font-weight="normal" x="221" y="118" text-anchor="start" dominant-baseline="alphabetic" fill-opacity="1">E</text><path fill="none" stroke="rgb(51,51,255)" paint-order="fill stroke markers" d=" M 156.49999999999994 36.50000000000006 L 290.28989469314536 221.92086179798275" stroke-opacity="0.6980392156862745" stroke-linecap="round" stroke-linejoin="round" stroke-miterlimit="10" stroke-width="5"/><text fill="rgb(51,51,255)" stroke="none" font-family="geogebra-sans-serif, sans-serif" font-size="20px" font-style="normal" font-weight="normal" x="149" y="246" text-anchor="start" dominant-baseline="alphabetic" fill-opacity="1">D</text><path fill="none" stroke="rgb(51,51,255)" paint-order="fill stroke markers" d=" M 290.28989469314536 221.92086179798275 L 22.56007807205134 221.92086179798275" stroke-opacity="0.6980392156862745" stroke-linecap="round" stroke-linejoin="round" stroke-miterlimit="10" stroke-width="5"/><path fill="rgb(77,77,255)" stroke="none" paint-order="stroke fill markers" d=" M 157.42498638259835 154.98840764270926 C 157.42498638259835 155.54069239254005 156.97727113242914 155.98840764270926 156.42498638259835 155.98840764270926 C 155.87270163276756 155.98840764270926 155.42498638259835 155.54069239254005 155.42498638259835 154.98840764270926 C 155.42498638259835 154.43612289287847 155.87270163276756 153.98840764270926 156.42498638259835 153.98840764270926 C 156.97727113242914 153.98840764270926 157.42498638259835 154.43612289287847 157.42498638259835 154.98840764270926 Z" fill-opacity="1"/><path fill="none" stroke="rgb(0,0,0)" paint-order="fill stroke markers" d=" M 157.42498638259835 154.98840764270926 C 157.42498638259835 155.54069239254005 156.97727113242914 155.98840764270926 156.42498638259835 155.98840764270926 C 155.87270163276756 155.98840764270926 155.42498638259835 155.54069239254005 155.42498638259835 154.98840764270926 C 155.42498638259835 154.43612289287847 155.87270163276756 153.98840764270926 156.42498638259835 153.98840764270926 C 156.97727113242914 153.98840764270926 157.42498638259835 154.43612289287847 157.42498638259835 154.98840764270926 Z" stroke-opacity="1" stroke-linecap="round" stroke-linejoin="round" stroke-miterlimit="10"/><path fill="rgb(77,77,255)" stroke="none" paint-order="stroke fill markers" d=" M 90.49253222732483 154.98840764270926 C 90.49253222732483 155.54069239254005 90.04481697715562 155.98840764270926 89.49253222732483 155.98840764270926 C 88.94024747749404 155.98840764270926 88.49253222732483 155.54069239254005 88.49253222732483 154.98840764270926 C 88.49253222732483 154.43612289287847 88.94024747749404 153.98840764270926 89.49253222732483 153.98840764270926 C 90.04481697715562 153.98840764270926 90.49253222732483 154.43612289287847 90.49253222732483 154.98840764270926 Z" fill-opacity="1"/><path fill="none" stroke="rgb(0,0,0)" paint-order="fill stroke markers" d=" M 90.49253222732483 154.98840764270926 C 90.49253222732483 155.54069239254005 90.04481697715562 155.98840764270926 89.49253222732483 155.98840764270926 C 88.94024747749404 155.98840764270926 88.49253222732483 155.54069239254005 88.49253222732483 154.98840764270926 C 88.49253222732483 154.43612289287847 88.94024747749404 153.98840764270926 89.49253222732483 153.98840764270926 C 90.04481697715562 153.98840764270926 90.49253222732483 154.43612289287847 90.49253222732483 154.98840764270926 Z" stroke-opacity="1" stroke-linecap="round" stroke-linejoin="round" stroke-miterlimit="10"/><path fill="rgb(77,77,255)" stroke="none" paint-order="stroke fill markers" d=" M 23.56007807205134 221.92086179798275 C 23.56007807205134 222.47314654781354 23.112362821882133 222.92086179798275 22.56007807205134 222.92086179798275 C 22.007793322220547 222.92086179798275 21.56007807205134 222.47314654781354 21.56007807205134 221.92086179798275 C 21.56007807205134 221.36857704815196 22.007793322220547 220.92086179798275 22.56007807205134 220.92086179798275 C 23.112362821882133 220.92086179798275 23.56007807205134 221.36857704815196 23.56007807205134 221.92086179798275 Z" fill-opacity="1"/><path fill="none" stroke="rgb(0,0,0)" paint-order="fill stroke markers" d=" M 23.56007807205134 221.92086179798275 C 23.56007807205134 222.47314654781354 23.112362821882133 222.92086179798275 22.56007807205134 222.92086179798275 C 22.007793322220547 222.92086179798275 21.56007807205134 222.47314654781354 21.56007807205134 221.92086179798275 C 21.56007807205134 221.36857704815196 22.007793322220547 220.92086179798275 22.56007807205134 220.92086179798275 C 23.112362821882133 220.92086179798275 23.56007807205134 221.36857704815196 23.56007807205134 221.92086179798275 Z" stroke-opacity="1" stroke-linecap="round" stroke-linejoin="round" stroke-miterlimit="10"/><text fill="rgb(77,77,255)" stroke="none" font-family="geogebra-sans-serif, sans-serif" font-size="20px" font-style="normal" font-weight="normal" x="16" y="244" text-anchor="start" dominant-baseline="alphabetic" fill-opacity="1">B</text><path fill="rgb(77,77,255)" stroke="none" paint-order="stroke fill markers" d=" M 157.49999999999994 36.50000000000006 C 157.49999999999994 37.05228474983085 157.05228474983073 37.50000000000006 156.49999999999994 37.50000000000006 C 155.94771525016915 37.50000000000006 155.49999999999994 37.05228474983085 155.49999999999994 36.50000000000006 C 155.49999999999994 35.94771525016926 155.94771525016915 35.50000000000006 156.49999999999994 35.50000000000006 C 157.05228474983073 35.50000000000006 157.49999999999994 35.94771525016926 157.49999999999994 36.50000000000006 Z" fill-opacity="1"/><path fill="none" stroke="rgb(0,0,0)" paint-order="fill stroke markers" d=" M 157.49999999999994 36.50000000000006 C 157.49999999999994 37.05228474983085 157.05228474983073 37.50000000000006 156.49999999999994 37.50000000000006 C 155.94771525016915 37.50000000000006 155.49999999999994 37.05228474983085 155.49999999999994 36.50000000000006 C 155.49999999999994 35.94771525016926 155.94771525016915 35.50000000000006 156.49999999999994 35.50000000000006 C 157.05228474983073 35.50000000000006 157.49999999999994 35.94771525016926 157.49999999999994 36.50000000000006 Z" stroke-opacity="1" stroke-linecap="round" stroke-linejoin="round" stroke-miterlimit="10"/><text fill="rgb(77,77,255)" stroke="none" font-family="geogebra-sans-serif, sans-serif" font-size="20px" font-style="normal" font-weight="normal" x="150" y="30" text-anchor="start" dominant-baseline="alphabetic" fill-opacity="1">A</text><path fill="rgb(77,77,255)" stroke="none" paint-order="stroke fill markers" d=" M 291.28989469314536 221.92086179798275 C 291.28989469314536 222.47314654781354 290.84217944297615 222.92086179798275 290.28989469314536 222.92086179798275 C 289.73760994331457 222.92086179798275 289.28989469314536 222.47314654781354 289.28989469314536 221.92086179798275 C 289.28989469314536 221.36857704815196 289.73760994331457 220.92086179798275 290.28989469314536 220.92086179798275 C 290.84217944297615 220.92086179798275 291.28989469314536 221.36857704815196 291.28989469314536 221.92086179798275 Z" fill-opacity="1"/><path fill="none" stroke="rgb(0,0,0)" paint-order="fill stroke markers" d=" M 291.28989469314536 221.92086179798275 C 291.28989469314536 222.47314654781354 290.84217944297615 222.92086179798275 290.28989469314536 222.92086179798275 C 289.73760994331457 222.92086179798275 289.28989469314536 222.47314654781354 289.28989469314536 221.92086179798275 C 289.28989469314536 221.36857704815196 289.73760994331457 220.92086179798275 290.28989469314536 220.92086179798275 C 290.84217944297615 220.92086179798275 291.28989469314536 221.36857704815196 291.28989469314536 221.92086179798275 Z" stroke-opacity="1" stroke-linecap="round" stroke-linejoin="round" stroke-miterlimit="10"/><text fill="rgb(77,77,255)" stroke="none" font-family="geogebra-sans-serif, sans-serif" font-size="20px" font-style="normal" font-weight="normal" x="289" y="245" text-anchor="start" dominant-baseline="alphabetic" fill-opacity="1">C</text></g></g></svg>