<svg version="1.1" xmlns="http://www.w3.org/2000/svg" xmlns:xlink="http://www.w3.org/1999/xlink" width="1132" height="878"><defs><clipPath id="oHHrWuXEWkuI"><path fill="none" stroke="none" d=" M 0 0 L 1132 0 L 1132 878 L 0 878 L 0 0 Z"/></clipPath></defs><g transform="scale(1,1)" clip-path="url(#oHHrWuXEWkuI)"><g><rect fill="none" stroke="none" x="0" y="0" width="1132" height="878" fill-opacity="1"/><path fill="rgb(0,0,0)" stroke="none" paint-order="stroke fill markers" d=" M 500.419822070834 24.191073128263383 C 499.9791579927305 24.191073128263383 499.5589777305824 24.278774769894863 499.17578363071226 24.4376757068353 L 499.17578364891995 24.4376757068353 C 499.5731329401917 24.273273987787373 499.99647750551287 24.19107312826341 500.419822070834 24.19107312826341 C 500.84316663615516 24.19107312826341 501.2665112014763 24.273273987787373 501.6638604927481 24.4376757068353 L 501.6638605109558 24.4376757068353 C 501.28066641108563 24.278774769894863 500.8604861489375 24.191073128263383 500.419822070834 24.191073128263383 Z M 500.419822070834 32.03726720597594 L 497.169822070834 35.28726720597595 L 497.169822070834 672.6445848563861 L 500.4198220708339 675.894584856386 L 500.41982207083413 675.894584856386 L 503.669822070834 672.6445848563861 L 503.669822070834 35.28726720597595 L 500.419822070834 32.03726720597594 Z M 499.17655039898034 683.4944941995209 C 499.5595382218015 683.6531942394379 499.97945189555435 683.7407789340987 500.419822070834 683.7407789340987 L 500.41982207083396 683.7407789340987 C 499.99675041610806 683.7407789340987 499.57367876138215 683.6586840225727 499.17655213926736 683.4944941995209 Z M 501.66360746342383 683.4942810328582 C 501.2663314820132 683.6586129670185 500.84307677642363 683.7407789340987 500.4198220708341 683.7407789340987 L 500.419822070834 683.7407789340987 C 500.8603893756897 683.7407789340987 501.2804818604116 683.6531158081584 501.6636080484194 683.4942810328582 Z" fill-opacity="0.5019607843137255"/><path fill="rgb(0,0,0)" stroke="none" paint-order="stroke fill markers" d=" M 498.12172503197775 25.142976089407114 L 485.12172503197775 38.142976089407114 C 483.8525210837861 39.41218003759877 483.85252108378614 41.46996621892811 485.12172503197775 42.73917016711971 C 486.39092898016935 44.00837411531131 488.4487151614986 44.00837411531131 489.7179191096903 42.73917016711971 L 502.7179191096903 29.739170167119653 C 503.98712305788194 28.46996621892805 503.9871230578819 26.412180037598716 502.7179191096903 25.142976089407114 C 501.4487151614987 23.87377214121551 499.39092898016935 23.87377214121551 498.12172503197775 25.142976089407114 Z M 515.7179191096903 38.142976089407114 L 502.7179191096903 25.142976089407114 C 501.4487151614987 23.87377214121551 499.39092898016935 23.87377214121551 498.12172503197775 25.142976089407114 C 496.85252108378614 26.412180037598716 496.8525210837861 28.46996621892805 498.12172503197775 29.739170167119653 L 511.12172503197775 42.73917016711971 C 512.3909289801694 44.00837411531131 514.4487151614987 44.00837411531131 515.7179191096903 42.73917016711971 C 516.987123057882 41.46996621892811 516.987123057882 39.41218003759877 515.7179191096903 38.142976089407114 Z" fill-opacity="0.5019607843137255"/><path fill="rgb(0,0,0)" stroke="none" paint-order="stroke fill markers" d=" M 502.71791910969034 678.1926818952425 L 489.71791910969034 665.1926818952425 C 488.44871516149874 663.9234779470507 486.3909289801694 663.9234779470507 485.1217250319778 665.1926818952423 C 483.8525210837862 666.461885843434 483.8525210837861 668.5196720247633 485.1217250319777 669.7888759729549 L 498.1217250319777 682.7888759729549 C 499.3909289801693 684.0580799211466 501.4487151614986 684.0580799211466 502.71791910969023 682.788875972955 C 503.98712305788183 681.5196720247634 503.98712305788194 679.4618858434341 502.71791910969034 678.1926818952425 Z M 511.1217250319777 665.1926818952425 L 498.1217250319777 678.1926818952425 C 496.8525210837861 679.4618858434341 496.8525210837862 681.5196720247634 498.1217250319778 682.788875972955 C 499.3909289801694 684.0580799211466 501.44871516149874 684.0580799211466 502.71791910969034 682.7888759729549 L 515.7179191096903 669.7888759729549 C 516.987123057882 668.5196720247633 516.9871230578818 666.461885843434 515.7179191096902 665.1926818952423 C 514.4487151614986 663.9234779470507 512.3909289801693 663.9234779470507 511.1217250319777 665.1926818952425 Z" fill-opacity="0.5019607843137255"/></g></g></svg>