<svg version="1.1" xmlns="http://www.w3.org/2000/svg" xmlns:xlink="http://www.w3.org/1999/xlink" width="1132" height="878"><defs><clipPath id="ccMTDZTgwVkw"><path fill="none" stroke="none" d=" M 0 0 L 1132 0 L 1132 878 L 0 878 L 0 0 Z"/></clipPath></defs><g transform="scale(1,1)" clip-path="url(#ccMTDZTgwVkw)"><g><rect fill="rgb(255,255,255)" stroke="none" x="0" y="0" width="1132" height="878" fill-opacity="1"/><path fill="rgb(0,0,0)" stroke="none" paint-order="stroke fill markers" d=" M 434.5500641592592 74.26232532769342 L 434.5500641592592 804.09037520801 L 434.55006415925925 804.09037520801 L 435.35552051099614 803.2849188562731 C 435.61917571907543 803.0212636481938 435.9230477293903 802.8223364063762 436.2473899051327 802.6881371308203 L 436.2473899487574 802.6881371308203 C 436.5716381843859 802.5536755987791 436.9271844733681 802.4794625045361 437.30006415925914 802.4794625045361 C 437.67294388109923 802.4794625045361 438.02849020268826 802.5536756130888 438.35273846354244 802.6881371697103 L 438.35273850737775 802.6881371697103 C 438.67708064783466 802.822336444808 438.98095262491137 803.0212636736622 439.24460780752213 803.2849188562731 L 440.05006415925914 804.0903752080101 L 440.0500641592592 804.0903752080101 L 440.0500641592592 74.26232532769342 L 439.2446078075222 75.06778167943042 C 439.24381591053736 75.06857357641523 439.2430235328334 75.0693649926809 439.24223067488555 75.07015592775214 L 439.24223071880976 75.07015592775214 C 438.97911478902626 75.33264340825399 438.6760786281705 75.5307853407161 438.3526941346149 75.66458172513848 L 438.3526941901558 75.66458172513848 C 438.02845783821124 75.79903167788397 437.6729269099719 75.87323803116743 437.3000641592592 75.87323803116743 C 436.9274418468222 75.87323803116743 436.5721290114251 75.79912735005789 436.2480614129132 75.6648417476841 L 436.2480628772855 75.6648417476841 C 435.9244381182527 75.53104031926043 435.62117591779986 75.33280819916737 435.35788703418166 75.07014538740493 L 435.35788707771746 75.07014538740493 C 435.35709774599854 75.06935796151721 435.35630889026845 75.06857005870272 435.35552051099614 75.06778167943042 L 435.3555205109962 75.06778167943042 L 434.5500641592592 74.26232532769342 Z" fill-opacity="0.5019607843137255"/><path fill="rgb(0,0,0)" stroke="none" paint-order="stroke fill markers" d=" M 439.2446078075222 71.17869438290444 L 428.2446078075222 60.17869438290444 C 427.1706660052062 59.10475258058847 425.42946231331223 59.10475258058847 424.3555205109962 60.17869438290444 C 423.2815787086802 61.25263618522041 423.2815787086802 62.99383987711445 424.3555205109962 64.06778167943042 L 435.3555205109962 75.06778167943042 C 436.4294623133122 76.1417234817464 438.17066600520616 76.1417234817464 439.2446078075222 75.06778167943042 C 440.3185496098382 73.99383987711445 440.3185496098382 72.25263618522041 439.2446078075222 71.17869438290444 Z M 440.0500641592592 73.12323803116743 L 440.0500641592592 62.12323803116743 C 440.0500641592592 60.604454969132746 438.8188472212939 59.37323803116743 437.3000641592592 59.37323803116743 C 435.7812810972245 59.37323803116743 434.5500641592592 60.604454969132746 434.5500641592592 62.12323803116743 L 434.5500641592592 73.12323803116743 C 434.5500641592592 74.64202109320212 435.7812810972245 75.87323803116743 437.3000641592592 75.87323803116743 C 438.8188472212939 75.87323803116743 440.0500641592592 74.64202109320212 440.0500641592592 73.12323803116743 Z M 439.2446078075222 75.06778167943042 L 450.2446078075222 64.06778167943042 C 451.3185496098382 62.99383987711445 451.31854960983816 61.25263618522041 450.2446078075222 60.17869438290444 C 449.1706660052062 59.10475258058847 447.4294623133122 59.10475258058847 446.3555205109962 60.17869438290444 L 435.3555205109962 71.17869438290444 C 434.2815787086802 72.25263618522041 434.2815787086802 73.99383987711445 435.3555205109962 75.06778167943042 C 436.42946231331223 76.1417234817464 438.1706660052062 76.1417234817464 439.2446078075222 75.06778167943042 Z" fill-opacity="0.5019607843137255"/><path fill="rgb(0,0,0)" stroke="none" paint-order="stroke fill markers" d=" M 435.35552051099614 803.2849188562731 L 424.35552051099614 814.2849188562731 C 423.2815787086802 815.358860658589 423.2815787086802 817.1000643504831 424.35552051099614 818.174006152799 C 425.4294623133121 819.247947955115 427.17066600520616 819.247947955115 428.24460780752213 818.174006152799 L 439.24460780752213 807.174006152799 C 440.3185496098381 806.1000643504831 440.3185496098381 804.358860658589 439.24460780752213 803.2849188562731 C 438.17066600520616 802.2109770539571 436.4294623133121 802.2109770539571 435.35552051099614 803.2849188562731 Z M 434.55006415925914 805.2294625045361 L 434.55006415925914 816.2294625045361 C 434.55006415925914 817.7482455665707 435.78128109722445 818.9794625045361 437.30006415925914 818.9794625045361 C 438.8188472212938 818.9794625045361 440.05006415925914 817.7482455665707 440.05006415925914 816.2294625045361 L 440.05006415925914 805.2294625045361 C 440.05006415925914 803.7106794425014 438.8188472212938 802.4794625045361 437.30006415925914 802.4794625045361 C 435.78128109722445 802.4794625045361 434.55006415925914 803.7106794425014 434.55006415925914 805.2294625045361 Z M 435.35552051099614 807.174006152799 L 446.35552051099614 818.174006152799 C 447.4294623133121 819.247947955115 449.17066600520616 819.247947955115 450.24460780752213 818.174006152799 C 451.3185496098381 817.1000643504831 451.3185496098381 815.358860658589 450.24460780752213 814.2849188562731 L 439.24460780752213 803.2849188562731 C 438.17066600520616 802.2109770539571 436.4294623133121 802.2109770539571 435.35552051099614 803.2849188562731 C 434.2815787086802 804.358860658589 434.2815787086802 806.1000643504831 435.35552051099614 807.174006152799 Z" fill-opacity="0.5019607843137255"/><path fill="none" stroke="rgb(0,0,0)" paint-order="fill stroke markers" d=" M -5 439.1763502678517 L 1137 439.1763502678517" stroke-opacity="0.6980392156862745" stroke-linecap="round" stroke-linejoin="round" stroke-miterlimit="10" stroke-width="4"/><path fill="none" stroke="rgb(51,51,255)" paint-order="fill stroke markers" d=" M 538.2793562118331 302.8748797440213 L 527.0505190299596 307.22381243411587" stroke-opacity="0.6980392156862745" stroke-linecap="round" stroke-linejoin="round" stroke-miterlimit="10" stroke-width="5.5"/><path fill="none" stroke="rgb(51,51,255)" paint-order="fill stroke markers" d=" M 538.2793562118331 302.8748797440213 L 535.2769005202348 291.2136079514599" stroke-opacity="0.6980392156862745" stroke-linecap="round" stroke-linejoin="round" stroke-miterlimit="10" stroke-width="5.5"/><path fill="rgb(51,51,255)" stroke="none" paint-order="stroke fill markers" d=" M 9.059514207986611 28.198804789551545 C 8.061532696034945 28.198804789551545 7.0987400906508595 28.74384512408984 6.611262728779799 29.692574799883204 C 5.917146680487262 31.04346521032596 6.449567497728539 32.701270497455155 7.800457908171294 33.39538654574769 L 1039.78332776241 563.6499993489015 L 1039.7833277624102 563.6499993489015 L 1042.296944328883 558.7579924236454 L 10.314074474644288 28.503379620491707 C 9.911913739994896 28.29674093407023 9.482552496187486 28.198804789551545 9.059514207986611 28.198804789551545 Z M 1056.0116317508105 567.7133229674783 L 1056.0116317508102 567.7133229674783 C 1055.9816910722984 568.0759059668546 1055.8798497036678 568.4262660838385 1055.7161568214144 568.7448455856925 L 1055.7161568214146 568.7448455856925 C 1055.886545850721 568.4132340254918 1055.9830254773346 568.0631282024191 1056.0116318564114 567.7133229674783 Z M 1055.713475508166 568.7500504118705 C 1055.5499451962457 569.0666638082295 1055.3252453798518 569.3517136856642 1055.049272621834 569.5859393285023 L 1055.0492723018274 569.5859393285023 C 1055.3157352112328 569.3601481269138 1055.5433103334515 569.0795356400704 1055.7134756137373 568.7500504118705 Z" fill-opacity="0.6980392156862745"/><path fill="rgb(51,51,255)" stroke="none" paint-order="stroke fill markers" d=" M 1048.5125582854107 549.9267471403834 C 1047.488661073462 549.9267471403834 1046.541030075077 550.4981419998818 1046.0673691785926 551.4199820357614 L 1036.0129029127006 570.9880097367854 C 1035.5045714131672 571.9773257880925 1035.6422431175333 573.1754389175842 1036.3617219255004 574.023670847942 C 1036.893329277483 574.6504111012634 1037.665215257922 574.9949401300149 1038.4592626679994 574.9949401300149 C 1038.7398811404403 574.9949401300149 1039.0232674301758 574.9519107126983 1039.2997943508308 574.86310131498 L 1054.1110413342885 570.106320597414 C 1055.5570792688306 569.6419109922281 1056.3528462589304 568.0931872614958 1055.8884366537445 566.6471493269539 L 1051.1316559361785 551.835902343496 C 1050.7915484979735 550.7769056044692 1049.8470059837464 550.027060281712 1048.7384670897382 549.9360180757703 C 1048.6628595147724 549.9298085684197 1048.5875045899543 549.9267471403834 1048.5125582854107 549.9267471403834 Z" fill-opacity="0.6980392156862745"/><path fill="none" stroke="rgb(51,51,255)" paint-order="fill stroke markers" d=" M 279.02109320337007 560.4012541310111 L 268.29556185383217 565.875098965319" stroke-opacity="0.6980392156862745" stroke-linecap="round" stroke-linejoin="round" stroke-miterlimit="10" stroke-width="5.5"/><path fill="none" stroke="rgb(51,51,255)" paint-order="fill stroke markers" d=" M 279.02109320337007 560.4012541310111 L 274.84247511234804 549.1079308446891" stroke-opacity="0.6980392156862745" stroke-linecap="round" stroke-linejoin="round" stroke-miterlimit="10" stroke-width="5.5"/><path fill="none" stroke="rgb(51,51,255)" paint-order="fill stroke markers" d=" M 105.83797280692096 492.78012342381425 L 437.3000641592592 622.2029063861938" stroke-opacity="0.6980392156862745" stroke-linecap="round" stroke-linejoin="round" stroke-miterlimit="10" stroke-width="5.5"/><path fill="none" stroke="rgb(51,51,255)" paint-order="fill stroke markers" d=" M 755.412207920525 465.89280655457225 L 752.4294654162394 476.8291335043817" stroke-opacity="0.6980392156862745" stroke-linecap="round" stroke-linejoin="round" stroke-miterlimit="10" stroke-width="5"/><path fill="none" stroke="rgb(51,51,255)" paint-order="fill stroke markers" d=" M 755.412207920525 465.89280655457225 L 744.9323806362282 461.571554410655" stroke-opacity="0.6980392156862745" stroke-linecap="round" stroke-linejoin="round" stroke-miterlimit="10" stroke-width="5"/><path fill="rgb(51,51,255)" stroke="none" paint-order="stroke fill markers" d=" M 1061.7133324215677 314.320109699476 C 1061.9606272581884 314.53779771159833 1062.1603719656177 314.80095062899943 1062.303853421244 315.0918360715202 L 1062.3038534705256 315.0918360715202 C 1062.154538678528 314.78910691389297 1061.9520997785771 314.5299553882433 1061.7133325277389 314.320109699476 Z M 1062.3080219798194 315.10032735150185 C 1062.4501704579068 315.39126270990334 1062.5361593843534 315.70966606050865 1062.5573192995187 316.03789388319655 L 1062.5573192258935 316.03789388319655 C 1062.537152914732 315.7211681601228 1062.4559541533226 315.40307412762553 1062.3080220860502 315.10032735150185 Z M 1047.7404612684077 319.4665822356559 L 436.19755169161044 619.9591447547634 L 436.1975516916105 619.9591447547634 C 434.95835636031603 620.5680455771441 434.4474017054481 622.0662235225481 435.0563025278288 623.3054188538425 C 435.4909441254434 624.1899731502951 436.3786987784996 624.7034672345267 437.3019339560256 624.7034672345267 C 437.67208317136857 624.7034672345267 438.0479355920661 624.6209272423903 438.4025766269079 624.4466680176242 L 438.40257662690783 624.4466680176242 L 1049.945486203705 323.9541054985167 L 1047.740461268408 319.4665822356559 Z" fill-opacity="0.6980392156862745"/><path fill="rgb(51,51,255)" stroke="none" paint-order="stroke fill markers" d=" M 1046.677084741342 309.1326803655874 C 1045.970930237099 309.1326803655874 1045.2826613817517 309.43231935551415 1044.7994463911682 309.98173268194836 C 1044.1316581153876 310.7410050246943 1043.9869991978658 311.82778047509834 1044.4329238654618 312.73529734136474 L 1053.2530236066511 330.6853903928079 C 1053.6752026378617 331.5445816850796 1054.5480287183225 332.0829043476452 1055.4961018771405 332.0829043476452 C 1055.5494266489359 332.0829043476452 1055.6029894684098 332.0812013385326 1055.656723538756 332.07775662761696 C 1056.6658077792802 332.01306762349515 1057.5365633714266 331.3468906344265 1057.8629583452494 330.3898629478927 L 1062.4279550003762 317.0047665515764 C 1062.8736405217737 315.6979652290279 1062.1755682384905 314.2772939430727 1060.8687669159422 313.83160842167507 L 1047.4836705196258 309.2666117665483 C 1047.2191529314405 309.17639785478144 1046.9468140735123 309.1326803655874 1046.677084741342 309.1326803655874 Z" fill-opacity="0.6980392156862745"/><path fill="rgb(125,125,255)" stroke="none" paint-order="stroke fill markers" d=" M 70.08820160038908 439.1763502678517 C 70.08820160038908 441.93777401700567 67.84962534954305 444.1763502678517 65.08820160038908 444.1763502678517 C 62.326777851235114 444.1763502678517 60.088201600389084 441.93777401700567 60.088201600389084 439.1763502678517 C 60.088201600389084 436.41492651869777 62.326777851235114 434.1763502678517 65.08820160038908 434.1763502678517 C 67.84962534954305 434.1763502678517 70.08820160038908 436.41492651869777 70.08820160038908 439.1763502678517 Z" fill-opacity="1"/><path fill="none" stroke="rgb(0,0,0)" paint-order="fill stroke markers" d=" M 70.08820160038908 439.1763502678517 C 70.08820160038908 441.93777401700567 67.84962534954305 444.1763502678517 65.08820160038908 444.1763502678517 C 62.326777851235114 444.1763502678517 60.088201600389084 441.93777401700567 60.088201600389084 439.1763502678517 C 60.088201600389084 436.41492651869777 62.326777851235114 434.1763502678517 65.08820160038908 434.1763502678517 C 67.84962534954305 434.1763502678517 70.08820160038908 436.41492651869777 70.08820160038908 439.1763502678517 Z" stroke-opacity="1" stroke-linecap="round" stroke-linejoin="round" stroke-miterlimit="10"/><text fill="rgb(125,125,255)" stroke="none" font-family="geogebra-sans-serif, sans-serif" font-size="20px" font-style="normal" font-weight="normal" text-decoration="normal" x="57" y="416" text-anchor="start" dominant-baseline="alphabetic" fill-opacity="1">F1</text><path fill="rgb(125,125,255)" stroke="none" paint-order="stroke fill markers" d=" M 808.3531763959429 439.1763502678517 C 808.3531763959429 441.93777401700567 806.1146001450969 444.1763502678517 803.3531763959429 444.1763502678517 C 800.5917526467889 444.1763502678517 798.3531763959429 441.93777401700567 798.3531763959429 439.1763502678517 C 798.3531763959429 436.41492651869777 800.5917526467889 434.1763502678517 803.3531763959429 434.1763502678517 C 806.1146001450969 434.1763502678517 808.3531763959429 436.41492651869777 808.3531763959429 439.1763502678517 Z" fill-opacity="1"/><path fill="none" stroke="rgb(0,0,0)" paint-order="fill stroke markers" d=" M 808.3531763959429 439.1763502678517 C 808.3531763959429 441.93777401700567 806.1146001450969 444.1763502678517 803.3531763959429 444.1763502678517 C 800.5917526467889 444.1763502678517 798.3531763959429 441.93777401700567 798.3531763959429 439.1763502678517 C 798.3531763959429 436.41492651869777 800.5917526467889 434.1763502678517 803.3531763959429 434.1763502678517 C 806.1146001450969 434.1763502678517 808.3531763959429 436.41492651869777 808.3531763959429 439.1763502678517 Z" stroke-opacity="1" stroke-linecap="round" stroke-linejoin="round" stroke-miterlimit="10"/><text fill="rgb(125,125,255)" stroke="none" font-family="geogebra-sans-serif, sans-serif" font-size="20px" font-style="normal" font-weight="normal" text-decoration="normal" x="798" y="417" text-anchor="start" dominant-baseline="alphabetic" fill-opacity="1">F2</text><path fill="rgb(125,125,255)" stroke="none" paint-order="stroke fill markers" d=" M 442.3000641592592 445.2387236828604 C 442.3000641592592 448.00014743201433 440.06148790841314 450.2387236828604 437.3000641592592 450.2387236828604 C 434.53864041010524 450.2387236828604 432.3000641592592 448.00014743201433 432.3000641592592 445.2387236828604 C 432.3000641592592 442.47729993370643 434.53864041010524 440.2387236828604 437.3000641592592 440.2387236828604 C 440.06148790841314 440.2387236828604 442.3000641592592 442.47729993370643 442.3000641592592 445.2387236828604 Z" fill-opacity="1"/><path fill="none" stroke="rgb(0,0,0)" paint-order="fill stroke markers" d=" M 442.3000641592592 445.2387236828604 C 442.3000641592592 448.00014743201433 440.06148790841314 450.2387236828604 437.3000641592592 450.2387236828604 C 434.53864041010524 450.2387236828604 432.3000641592592 448.00014743201433 432.3000641592592 445.2387236828604 C 432.3000641592592 442.47729993370643 434.53864041010524 440.2387236828604 437.3000641592592 440.2387236828604 C 440.06148790841314 440.2387236828604 442.3000641592592 442.47729993370643 442.3000641592592 445.2387236828604 Z" stroke-opacity="1" stroke-linecap="round" stroke-linejoin="round" stroke-miterlimit="10"/><text fill="rgb(125,125,255)" stroke="none" font-family="geogebra-sans-serif, sans-serif" font-size="20px" font-style="normal" font-weight="normal" text-decoration="normal" x="450" y="424" text-anchor="start" dominant-baseline="alphabetic" fill-opacity="1">P</text></g></g></svg>