<svg version="1.1" xmlns="http://www.w3.org/2000/svg" xmlns:xlink="http://www.w3.org/1999/xlink" width="1132" height="878"><defs><clipPath id="XsKpfxMCrvIA"><path fill="none" stroke="none" d=" M 0 0 L 1132 0 L 1132 878 L 0 878 L 0 0 Z"/></clipPath></defs><g transform="scale(1,1)" clip-path="url(#XsKpfxMCrvIA)"><g><rect fill="none" stroke="none" x="0" y="0" width="1132" height="878" fill-opacity="1"/><path fill="rgb(0,0,0)" stroke="none" paint-order="stroke fill markers" d=" M 550.2180333022577 160.6671560006252 L 550.2180333022577 590.1918487175712 L 550.8038197398846 589.6060622799444 C 550.9955661486465 589.4143158711825 551.2165602764464 589.2696429557342 551.4524415695149 589.1720435335994 L 551.4524416246603 589.1720435335994 C 551.6882613297547 589.0742505937906 551.9468440766663 589.0202758423175 552.2180333022577 589.0202758423175 C 552.4892225540033 589.0202758423175 552.7478053246374 589.0742506042014 552.9836250480843 589.1720435618936 L 552.9836251033825 589.1720435618936 C 553.2195063707798 589.2696429836947 553.440500474398 589.4143158897116 553.6322468646308 589.6060622799444 L 554.2180333022577 590.1918487175712 L 554.2180333022577 160.6671560006252 L 553.6322468646308 161.2529424382521 L 553.6322468646309 161.2529424382521 C 553.6314881179662 161.25370118491674 553.630728764495 161.25445932477473 553.6299688050074 161.2552168570357 L 553.6299688603704 161.2552168570357 C 553.4387375821594 161.44584659347043 553.2185419682203 161.58976817063893 552.9835757202443 161.68698158854124 L 552.9835757755427 161.68698158854124 C 552.7477693056929 161.78476163206335 552.4892036665616 161.83872887587899 552.2180333022577 161.83872887587899 C 551.9470129969058 161.83872887587899 551.6885834703019 161.7848213438049 551.4528823182296 161.68714387544048 L 551.4528832527275 161.68714387544048 C 551.2177673794383 161.5899273836535 550.9974309793996 161.44594976981602 550.8060919026858 161.25521103392808 L 550.8060919577666 161.25521103392808 C 550.8053339486279 161.25445543959327 550.8045765424058 161.25369924077316 550.8038197398847 161.2529424382521 L 550.8038197398846 161.2529424382521 L 550.2180333022577 160.6671560006252 Z" fill-opacity="0.5019607843137255"/><path fill="rgb(0,0,0)" stroke="none" paint-order="stroke fill markers" d=" M 553.6322468646308 158.42451531350588 L 545.6322468646308 150.42451531350588 C 544.8511982811283 149.64346673000335 543.5848683233872 149.64346673000335 542.8038197398846 150.42451531350588 C 542.0227711563821 151.2055638970084 542.0227711563821 152.47189385474957 542.8038197398846 153.2529424382521 L 550.8038197398846 161.2529424382521 C 551.5848683233872 162.03399102175462 552.8511982811283 162.03399102175462 553.6322468646308 161.2529424382521 C 554.4132954481335 160.47189385474957 554.4132954481335 159.2055638970084 553.6322468646308 158.42451531350588 Z M 554.2180333022577 159.83872887587899 L 554.2180333022577 151.83872887587899 C 554.2180333022577 150.7341593762174 553.3226028019194 149.83872887587899 552.2180333022577 149.83872887587899 C 551.1134638025962 149.83872887587899 550.2180333022577 150.7341593762174 550.2180333022577 151.83872887587899 L 550.2180333022577 159.83872887587899 C 550.2180333022577 160.94329837554056 551.1134638025962 161.83872887587899 552.2180333022577 161.83872887587899 C 553.3226028019194 161.83872887587899 554.2180333022577 160.94329837554056 554.2180333022577 159.83872887587899 Z M 553.6322468646308 161.2529424382521 L 561.6322468646308 153.2529424382521 C 562.4132954481335 152.47189385474957 562.4132954481335 151.2055638970084 561.6322468646308 150.42451531350588 C 560.8511982811283 149.64346673000335 559.5848683233872 149.64346673000335 558.8038197398846 150.42451531350588 L 550.8038197398846 158.42451531350588 C 550.0227711563821 159.2055638970084 550.0227711563821 160.47189385474957 550.8038197398846 161.2529424382521 C 551.5848683233872 162.03399102175462 552.8511982811283 162.03399102175462 553.6322468646308 161.2529424382521 Z" fill-opacity="0.5019607843137255"/><path fill="rgb(0,0,0)" stroke="none" paint-order="stroke fill markers" d=" M 550.8038197398846 589.6060622799444 L 542.8038197398846 597.6060622799444 C 542.0227711563821 598.3871108634469 542.0227711563821 599.653440821188 542.8038197398846 600.4344894046906 C 543.5848683233871 601.2155379881931 544.8511982811283 601.2155379881931 545.6322468646308 600.4344894046906 L 553.6322468646308 592.4344894046906 C 554.4132954481333 591.653440821188 554.4132954481333 590.3871108634469 553.6322468646308 589.6060622799444 C 552.8511982811283 588.8250136964418 551.5848683233871 588.8250136964418 550.8038197398846 589.6060622799444 Z M 550.2180333022577 591.0202758423175 L 550.2180333022577 599.0202758423175 C 550.2180333022577 600.124845341979 551.1134638025961 601.0202758423175 552.2180333022577 601.0202758423175 C 553.3226028019193 601.0202758423175 554.2180333022577 600.124845341979 554.2180333022577 599.0202758423175 L 554.2180333022577 591.0202758423175 C 554.2180333022577 589.9157063426559 553.3226028019193 589.0202758423175 552.2180333022577 589.0202758423175 C 551.1134638025961 589.0202758423175 550.2180333022577 589.9157063426559 550.2180333022577 591.0202758423175 Z M 550.8038197398846 592.4344894046906 L 558.8038197398846 600.4344894046906 C 559.5848683233871 601.2155379881931 560.8511982811283 601.2155379881931 561.6322468646308 600.4344894046906 C 562.4132954481333 599.653440821188 562.4132954481333 598.3871108634469 561.6322468646308 597.6060622799444 L 553.6322468646308 589.6060622799444 C 552.8511982811283 588.8250136964418 551.5848683233871 588.8250136964418 550.8038197398846 589.6060622799444 C 550.0227711563821 590.3871108634469 550.0227711563821 591.653440821188 550.8038197398846 592.4344894046906 Z" fill-opacity="0.5019607843137255"/><path fill="none" stroke="rgb(0,0,0)" paint-order="fill stroke markers" d=" M -5 375.42950235909825 L 1137 375.42950235909825" stroke-opacity="0.6980392156862745" stroke-linecap="round" stroke-linejoin="round" stroke-miterlimit="10" stroke-width="4"/><path fill="none" stroke="rgb(51,51,255)" paint-order="fill stroke markers" d=" M 423.97379987524585 267.63411561748865 L 417.47379987524585 275.13411561748865" stroke-opacity="0.6980392156862745" stroke-linecap="round" stroke-linejoin="round" stroke-miterlimit="10" stroke-width="4"/><path fill="none" stroke="rgb(51,51,255)" paint-order="fill stroke markers" d=" M 423.97379987524585 267.63411561748865 L 417.47379987524585 260.13411561748865" stroke-opacity="0.6980392156862745" stroke-linecap="round" stroke-linejoin="round" stroke-miterlimit="10" stroke-width="4"/><path fill="none" stroke="rgb(51,51,255)" paint-order="fill stroke markers" d=" M 282.729566448234 267.63411561748865 L 552.2180333022577 267.63411561748865" stroke-opacity="0.6980392156862745" stroke-linecap="round" stroke-linejoin="round" stroke-miterlimit="10" stroke-width="4"/><path fill="none" stroke="rgb(51,51,255)" paint-order="fill stroke markers" d=" M 665.8271967853666 210.8295338759341 L 663.3675220101169 220.4446261791832" stroke-opacity="0.6980392156862745" stroke-linecap="round" stroke-linejoin="round" stroke-miterlimit="10" stroke-width="4"/><path fill="none" stroke="rgb(51,51,255)" paint-order="fill stroke markers" d=" M 665.8271967853666 210.8295338759341 L 656.6593180776174 207.02821831418444" stroke-opacity="0.6980392156862745" stroke-linecap="round" stroke-linejoin="round" stroke-miterlimit="10" stroke-width="4"/><path fill="none" stroke="rgb(51,51,255)" paint-order="fill stroke markers" d=" M 552.2180333022577 267.63411561748865 L 767.8088067854767 159.83872887587899" stroke-opacity="0.6980392156862745" stroke-linecap="round" stroke-linejoin="round" stroke-miterlimit="10" stroke-width="4"/><path fill="none" stroke="rgb(0,0,0)" paint-order="fill stroke markers" d=" M 552.2180333022577 267.63411561748865 L 333 375.42950235909825" stroke-opacity="0.6980392156862745" stroke-linejoin="round" stroke-miterlimit="10" stroke-width="4.5" stroke-dasharray="12.5,8"/><path fill="none" stroke="rgb(0,0,0)" paint-order="fill stroke markers" d=" M 333 375.42950235909825 L 552.2180333022577 483.22488910070786" stroke-opacity="0.6980392156862745" stroke-linejoin="round" stroke-miterlimit="10" stroke-width="4.5" stroke-dasharray="12.5,8"/><path fill="none" stroke="rgb(51,51,255)" paint-order="fill stroke markers" d=" M 666.2744103808666 540.2530776400124 L 656.4357112798675 544.2779999995121" stroke-opacity="0.6980392156862745" stroke-linecap="round" stroke-linejoin="round" stroke-miterlimit="10" stroke-width="4.5"/><path fill="none" stroke="rgb(51,51,255)" paint-order="fill stroke markers" d=" M 666.2744103808666 540.2530776400124 L 663.5911288078669 529.9671649435134" stroke-opacity="0.6980392156862745" stroke-linecap="round" stroke-linejoin="round" stroke-miterlimit="10" stroke-width="4.5"/><path fill="none" stroke="rgb(51,51,255)" paint-order="fill stroke markers" d=" M 552.2180333022577 483.22488910070786 L 767.8088067854767 591.0202758423175" stroke-opacity="0.6980392156862745" stroke-linecap="round" stroke-linejoin="round" stroke-miterlimit="10" stroke-width="4.5"/><path fill="none" stroke="rgb(51,51,255)" paint-order="fill stroke markers" d=" M 424.47379987524585 483.22488910070786 L 417.47379987524585 491.22488910070786" stroke-opacity="0.6980392156862745" stroke-linecap="round" stroke-linejoin="round" stroke-miterlimit="10" stroke-width="4.5"/><path fill="none" stroke="rgb(51,51,255)" paint-order="fill stroke markers" d=" M 424.47379987524585 483.22488910070786 L 417.47379987524585 475.22488910070786" stroke-opacity="0.6980392156862745" stroke-linecap="round" stroke-linejoin="round" stroke-miterlimit="10" stroke-width="4.5"/><path fill="none" stroke="rgb(51,51,255)" paint-order="fill stroke markers" d=" M 282.729566448234 483.22488910070786 L 552.2180333022577 483.22488910070786" stroke-opacity="0.6980392156862745" stroke-linecap="round" stroke-linejoin="round" stroke-miterlimit="10" stroke-width="4.5"/><path fill="rgb(125,125,255)" stroke="none" paint-order="stroke fill markers" d=" M 338 375.42950235909825 C 338 378.1909261082522 335.76142374915395 380.42950235909825 333 380.42950235909825 C 330.23857625084605 380.42950235909825 328 378.1909261082522 328 375.42950235909825 C 328 372.6680786099443 330.23857625084605 370.42950235909825 333 370.42950235909825 C 335.76142374915395 370.42950235909825 338 372.6680786099443 338 375.42950235909825 Z" fill-opacity="1"/><path fill="none" stroke="rgb(0,0,0)" paint-order="fill stroke markers" d=" M 338 375.42950235909825 C 338 378.1909261082522 335.76142374915395 380.42950235909825 333 380.42950235909825 C 330.23857625084605 380.42950235909825 328 378.1909261082522 328 375.42950235909825 C 328 372.6680786099443 330.23857625084605 370.42950235909825 333 370.42950235909825 C 335.76142374915395 370.42950235909825 338 372.6680786099443 338 375.42950235909825 Z" stroke-opacity="1" stroke-linecap="round" stroke-linejoin="round" stroke-miterlimit="10"/><text fill="rgb(125,125,255)" stroke="none" font-family="geogebra-sans-serif, sans-serif" font-size="20px" font-style="normal" font-weight="normal"  x="325" y="414" text-anchor="start" dominant-baseline="alphabetic" fill-opacity="1">K</text><path fill="rgb(77,77,255)" stroke="none" paint-order="stroke fill markers" d=" M 287.729566448234 267.63411561748865 C 287.729566448234 270.3955393666426 285.49099019738793 272.63411561748865 282.729566448234 272.63411561748865 C 279.96814269908003 272.63411561748865 277.729566448234 270.3955393666426 277.729566448234 267.63411561748865 C 277.729566448234 264.8726918683347 279.96814269908003 262.63411561748865 282.729566448234 262.63411561748865 C 285.49099019738793 262.63411561748865 287.729566448234 264.8726918683347 287.729566448234 267.63411561748865 Z" fill-opacity="1"/><path fill="none" stroke="rgb(0,0,0)" paint-order="fill stroke markers" d=" M 287.729566448234 267.63411561748865 C 287.729566448234 270.3955393666426 285.49099019738793 272.63411561748865 282.729566448234 272.63411561748865 C 279.96814269908003 272.63411561748865 277.729566448234 270.3955393666426 277.729566448234 267.63411561748865 C 277.729566448234 264.8726918683347 279.96814269908003 262.63411561748865 282.729566448234 262.63411561748865 C 285.49099019738793 262.63411561748865 287.729566448234 264.8726918683347 287.729566448234 267.63411561748865 Z" stroke-opacity="1" stroke-linecap="round" stroke-linejoin="round" stroke-miterlimit="10"/><text fill="rgb(77,77,255)" stroke="none" font-family="geogebra-sans-serif, sans-serif" font-size="20px" font-style="normal" font-weight="normal"  x="287" y="258" text-anchor="start" dominant-baseline="alphabetic" fill-opacity="1">L</text><path fill="rgb(125,125,255)" stroke="none" paint-order="stroke fill markers" d=" M 554.2180333022577 267.63411561748865 C 554.2180333022577 268.7386851171502 553.3226028019193 269.63411561748865 552.2180333022577 269.63411561748865 C 551.1134638025961 269.63411561748865 550.2180333022577 268.7386851171502 550.2180333022577 267.63411561748865 C 550.2180333022577 266.52954611782707 551.1134638025961 265.63411561748865 552.2180333022577 265.63411561748865 C 553.3226028019193 265.63411561748865 554.2180333022577 266.52954611782707 554.2180333022577 267.63411561748865 Z" fill-opacity="1"/><path fill="none" stroke="rgb(0,0,0)" paint-order="fill stroke markers" d=" M 554.2180333022577 267.63411561748865 C 554.2180333022577 268.7386851171502 553.3226028019193 269.63411561748865 552.2180333022577 269.63411561748865 C 551.1134638025961 269.63411561748865 550.2180333022577 268.7386851171502 550.2180333022577 267.63411561748865 C 550.2180333022577 266.52954611782707 551.1134638025961 265.63411561748865 552.2180333022577 265.63411561748865 C 553.3226028019193 265.63411561748865 554.2180333022577 266.52954611782707 554.2180333022577 267.63411561748865 Z" stroke-opacity="1" stroke-linecap="round" stroke-linejoin="round" stroke-miterlimit="10"/><path fill="rgb(77,77,255)" stroke="none" paint-order="stroke fill markers" d=" M 768.8088067854767 159.83872887587899 C 768.8088067854767 160.39101362570977 768.3610915353075 160.83872887587899 767.8088067854767 160.83872887587899 C 767.2565220356458 160.83872887587899 766.8088067854767 160.39101362570977 766.8088067854767 159.83872887587899 C 766.8088067854767 159.2864441260482 767.2565220356458 158.83872887587899 767.8088067854767 158.83872887587899 C 768.3610915353075 158.83872887587899 768.8088067854767 159.2864441260482 768.8088067854767 159.83872887587899 Z" fill-opacity="1"/><path fill="none" stroke="rgb(0,0,0)" paint-order="fill stroke markers" d=" M 768.8088067854767 159.83872887587899 C 768.8088067854767 160.39101362570977 768.3610915353075 160.83872887587899 767.8088067854767 160.83872887587899 C 767.2565220356458 160.83872887587899 766.8088067854767 160.39101362570977 766.8088067854767 159.83872887587899 C 766.8088067854767 159.2864441260482 767.2565220356458 158.83872887587899 767.8088067854767 158.83872887587899 C 768.3610915353075 158.83872887587899 768.8088067854767 159.2864441260482 768.8088067854767 159.83872887587899 Z" stroke-opacity="1" stroke-linecap="round" stroke-linejoin="round" stroke-miterlimit="10"/><path fill="rgb(125,125,255)" stroke="none" paint-order="stroke fill markers" d=" M 553.2180333022577 483.22488910070786 C 553.2180333022577 483.77717385053865 552.7703180520886 484.22488910070786 552.2180333022577 484.22488910070786 C 551.6657485524269 484.22488910070786 551.2180333022577 483.77717385053865 551.2180333022577 483.22488910070786 C 551.2180333022577 482.67260435087707 551.6657485524269 482.22488910070786 552.2180333022577 482.22488910070786 C 552.7703180520886 482.22488910070786 553.2180333022577 482.67260435087707 553.2180333022577 483.22488910070786 Z" fill-opacity="1"/><path fill="none" stroke="rgb(0,0,0)" paint-order="fill stroke markers" d=" M 553.2180333022577 483.22488910070786 C 553.2180333022577 483.77717385053865 552.7703180520886 484.22488910070786 552.2180333022577 484.22488910070786 C 551.6657485524269 484.22488910070786 551.2180333022577 483.77717385053865 551.2180333022577 483.22488910070786 C 551.2180333022577 482.67260435087707 551.6657485524269 482.22488910070786 552.2180333022577 482.22488910070786 C 552.7703180520886 482.22488910070786 553.2180333022577 482.67260435087707 553.2180333022577 483.22488910070786 Z" stroke-opacity="1" stroke-linecap="round" stroke-linejoin="round" stroke-miterlimit="10"/><path fill="rgb(77,77,255)" stroke="none" paint-order="stroke fill markers" d=" M 768.8088067854767 591.0202758423175 C 768.8088067854767 591.5725605921483 768.3610915353075 592.0202758423175 767.8088067854767 592.0202758423175 C 767.2565220356458 592.0202758423175 766.8088067854767 591.5725605921483 766.8088067854767 591.0202758423175 C 766.8088067854767 590.4679910924866 767.2565220356458 590.0202758423175 767.8088067854767 590.0202758423175 C 768.3610915353075 590.0202758423175 768.8088067854767 590.4679910924866 768.8088067854767 591.0202758423175 Z" fill-opacity="1"/><path fill="none" stroke="rgb(0,0,0)" paint-order="fill stroke markers" d=" M 768.8088067854767 591.0202758423175 C 768.8088067854767 591.5725605921483 768.3610915353075 592.0202758423175 767.8088067854767 592.0202758423175 C 767.2565220356458 592.0202758423175 766.8088067854767 591.5725605921483 766.8088067854767 591.0202758423175 C 766.8088067854767 590.4679910924866 767.2565220356458 590.0202758423175 767.8088067854767 590.0202758423175 C 768.3610915353075 590.0202758423175 768.8088067854767 590.4679910924866 768.8088067854767 591.0202758423175 Z" stroke-opacity="1" stroke-linecap="round" stroke-linejoin="round" stroke-miterlimit="10"/><path fill="rgb(77,77,255)" stroke="none" paint-order="stroke fill markers" d=" M 284.729566448234 483.22488910070786 C 284.729566448234 484.32945860036943 283.83413594789556 485.22488910070786 282.729566448234 485.22488910070786 C 281.6249969485724 485.22488910070786 280.729566448234 484.32945860036943 280.729566448234 483.22488910070786 C 280.729566448234 482.1203196010463 281.6249969485724 481.22488910070786 282.729566448234 481.22488910070786 C 283.83413594789556 481.22488910070786 284.729566448234 482.1203196010463 284.729566448234 483.22488910070786 Z" fill-opacity="1"/><path fill="none" stroke="rgb(0,0,0)" paint-order="fill stroke markers" d=" M 284.729566448234 483.22488910070786 C 284.729566448234 484.32945860036943 283.83413594789556 485.22488910070786 282.729566448234 485.22488910070786 C 281.6249969485724 485.22488910070786 280.729566448234 484.32945860036943 280.729566448234 483.22488910070786 C 280.729566448234 482.1203196010463 281.6249969485724 481.22488910070786 282.729566448234 481.22488910070786 C 283.83413594789556 481.22488910070786 284.729566448234 482.1203196010463 284.729566448234 483.22488910070786 Z" stroke-opacity="1" stroke-linecap="round" stroke-linejoin="round" stroke-miterlimit="10"/><text fill="rgb(77,77,255)" stroke="none" font-family="geogebra-sans-serif, sans-serif" font-size="20px" font-style="normal" font-weight="normal"  x="287" y="479" text-anchor="start" dominant-baseline="alphabetic" fill-opacity="1">M</text></g></g></svg>