<svg version="1.1" xmlns="http://www.w3.org/2000/svg" xmlns:xlink="http://www.w3.org/1999/xlink" width="356" height="335"><defs><clipPath id="qOohtBNNqaHO"><path fill="none" stroke="none" d=" M 0 0 L 356 0 L 356 335 L 0 335 L 0 0 Z"/></clipPath></defs><g transform="scale(1,1)" clip-path="url(#qOohtBNNqaHO)"><g><rect fill="none" stroke="none" x="0" y="0" width="357" height="336" fill-opacity="1"/><path fill="rgb(0,100,0)" stroke="none" paint-order="stroke fill markers" fill-rule="evenodd" d=" M 253.0399276682756 245.47376109102765 L 253.0399276682756 224.26055765543265 L 231.82672423267917 224.26055765543123 L 231.8267242326806 245.47376109102765 L 253.0399276682756 245.47376109102765" fill-opacity="0.09803921568627451"/><path fill="none" stroke="rgb(0,100,0)" paint-order="fill stroke markers" d=" M 253.0399276682756 245.47376109102765 L 253.0399276682756 224.26055765543265 L 231.82672423267917 224.26055765543123 L 231.8267242326806 245.47376109102765 L 253.0399276682756 245.47376109102765" stroke-opacity="0.6980392156862745" stroke-linecap="round" stroke-linejoin="round" stroke-miterlimit="10" stroke-width="5"/><path fill="rgb(0,100,0)" stroke="none" paint-order="stroke fill markers" d=" M 231.82672423267917 96.81735934034316 C 237.45281558612015 102.44345069378419 245.08343297308926 105.60415590474673 253.0399276682756 105.60415590474673 L 253.0399276682756 75.60415590474673 Z" fill-opacity="0.09803921568627451"/><path fill="none" stroke="rgb(0,100,0)" paint-order="fill stroke markers" d=" M 231.82672423267917 96.81735934034316 C 237.45281558612015 102.44345069378419 245.08343297308926 105.60415590474673 253.0399276682756 105.60415590474673 L 253.0399276682756 75.60415590474673 Z" stroke-opacity="0.6980392156862745" stroke-linecap="round" stroke-linejoin="round" stroke-miterlimit="10" stroke-width="5"/><text fill="rgb(0,100,0)" stroke="none" font-family="geogebra-sans-serif, sans-serif" font-size="20px" font-style="normal" font-weight="normal" x="230" y="126" text-anchor="start" dominant-baseline="alphabetic" fill-opacity="1">θ</text><text fill="rgb(0,0,0)" stroke="none" font-family="geogebra-sans-serif, sans-serif" font-size="20px" font-style="normal" font-weight="normal" x="162" y="265" text-anchor="start" dominant-baseline="alphabetic" fill-opacity="1">15</text><path fill="none" stroke="rgb(0,0,0)" paint-order="fill stroke markers" d=" M 83.17032248199462 245.47376109102765 L 253.0399276682756 245.47376109102765" stroke-opacity="0.6980392156862745" stroke-linecap="round" stroke-linejoin="round" stroke-miterlimit="10" stroke-width="5"/><text fill="rgb(0,0,0)" stroke="none" font-family="geogebra-sans-serif, sans-serif" font-size="20px" font-style="normal" font-weight="normal" x="267" y="177" text-anchor="start" dominant-baseline="alphabetic" fill-opacity="1">8</text><path fill="none" stroke="rgb(0,0,0)" paint-order="fill stroke markers" d=" M 253.0399276682756 245.47376109102765 L 253.0399276682756 75.60415590474673" stroke-opacity="0.6980392156862745" stroke-linecap="round" stroke-linejoin="round" stroke-miterlimit="10" stroke-width="5"/><text fill="rgb(0,0,0)" stroke="none" font-family="geogebra-sans-serif, sans-serif" font-size="20px" font-style="normal" font-weight="normal" x="150" y="156" text-anchor="start" dominant-baseline="alphabetic" fill-opacity="1">17</text><path fill="none" stroke="rgb(0,0,0)" paint-order="fill stroke markers" d=" M 253.0399276682756 75.60415590474673 L 83.17032248199462 245.47376109102765" stroke-opacity="0.6980392156862745" stroke-linecap="round" stroke-linejoin="round" stroke-miterlimit="10" stroke-width="5"/><path fill="rgb(77,77,255)" stroke="none" paint-order="stroke fill markers" d=" M 84.17032248199462 245.47376109102765 C 84.17032248199462 246.02604584085844 83.7226072318254 246.47376109102765 83.17032248199462 246.47376109102765 C 82.61803773216383 246.47376109102765 82.17032248199462 246.02604584085844 82.17032248199462 245.47376109102765 C 82.17032248199462 244.92147634119686 82.61803773216383 244.47376109102765 83.17032248199462 244.47376109102765 C 83.7226072318254 244.47376109102765 84.17032248199462 244.92147634119686 84.17032248199462 245.47376109102765 Z" fill-opacity="1"/><path fill="none" stroke="rgb(0,0,0)" paint-order="fill stroke markers" d=" M 84.17032248199462 245.47376109102765 C 84.17032248199462 246.02604584085844 83.7226072318254 246.47376109102765 83.17032248199462 246.47376109102765 C 82.61803773216383 246.47376109102765 82.17032248199462 246.02604584085844 82.17032248199462 245.47376109102765 C 82.17032248199462 244.92147634119686 82.61803773216383 244.47376109102765 83.17032248199462 244.47376109102765 C 83.7226072318254 244.47376109102765 84.17032248199462 244.92147634119686 84.17032248199462 245.47376109102765 Z" stroke-opacity="1" stroke-linecap="round" stroke-linejoin="round" stroke-miterlimit="10"/><text fill="rgb(77,77,255)" stroke="none" font-family="geogebra-sans-serif, sans-serif" font-size="20px" font-style="normal" font-weight="normal" x="57" y="266" text-anchor="start" dominant-baseline="alphabetic" fill-opacity="1">A</text><path fill="rgb(77,77,255)" stroke="none" paint-order="stroke fill markers" d=" M 254.0399276682756 245.47376109102765 C 254.0399276682756 246.02604584085844 253.59221241810639 246.47376109102765 253.0399276682756 246.47376109102765 C 252.4876429184448 246.47376109102765 252.0399276682756 246.02604584085844 252.0399276682756 245.47376109102765 C 252.0399276682756 244.92147634119686 252.4876429184448 244.47376109102765 253.0399276682756 244.47376109102765 C 253.59221241810639 244.47376109102765 254.0399276682756 244.92147634119686 254.0399276682756 245.47376109102765 Z" fill-opacity="1"/><path fill="none" stroke="rgb(0,0,0)" paint-order="fill stroke markers" d=" M 254.0399276682756 245.47376109102765 C 254.0399276682756 246.02604584085844 253.59221241810639 246.47376109102765 253.0399276682756 246.47376109102765 C 252.4876429184448 246.47376109102765 252.0399276682756 246.02604584085844 252.0399276682756 245.47376109102765 C 252.0399276682756 244.92147634119686 252.4876429184448 244.47376109102765 253.0399276682756 244.47376109102765 C 253.59221241810639 244.47376109102765 254.0399276682756 244.92147634119686 254.0399276682756 245.47376109102765 Z" stroke-opacity="1" stroke-linecap="round" stroke-linejoin="round" stroke-miterlimit="10"/><text fill="rgb(77,77,255)" stroke="none" font-family="geogebra-sans-serif, sans-serif" font-size="20px" font-style="normal" font-weight="normal" x="248" y="268" text-anchor="start" dominant-baseline="alphabetic" fill-opacity="1">B</text><path fill="rgb(77,77,255)" stroke="none" paint-order="stroke fill markers" d=" M 254.0399276682756 75.60415590474673 C 254.0399276682756 76.15644065457752 253.59221241810639 76.60415590474673 253.0399276682756 76.60415590474673 C 252.4876429184448 76.60415590474673 252.0399276682756 76.15644065457752 252.0399276682756 75.60415590474673 C 252.0399276682756 75.05187115491594 252.4876429184448 74.60415590474673 253.0399276682756 74.60415590474673 C 253.59221241810639 74.60415590474673 254.0399276682756 75.05187115491594 254.0399276682756 75.60415590474673 Z" fill-opacity="1"/><path fill="none" stroke="rgb(0,0,0)" paint-order="fill stroke markers" d=" M 254.0399276682756 75.60415590474673 C 254.0399276682756 76.15644065457752 253.59221241810639 76.60415590474673 253.0399276682756 76.60415590474673 C 252.4876429184448 76.60415590474673 252.0399276682756 76.15644065457752 252.0399276682756 75.60415590474673 C 252.0399276682756 75.05187115491594 252.4876429184448 74.60415590474673 253.0399276682756 74.60415590474673 C 253.59221241810639 74.60415590474673 254.0399276682756 75.05187115491594 254.0399276682756 75.60415590474673 Z" stroke-opacity="1" stroke-linecap="round" stroke-linejoin="round" stroke-miterlimit="10"/><text fill="rgb(77,77,255)" stroke="none" font-family="geogebra-sans-serif, sans-serif" font-size="20px" font-style="normal" font-weight="normal" x="260" y="70" text-anchor="start" dominant-baseline="alphabetic" fill-opacity="1">C</text></g></g></svg>